%TF.GenerationSoftware,KiCad,Pcbnew,7.0.9-1.fc39*%
%TF.CreationDate,2023-12-29T10:13:10-08:00*%
%TF.ProjectId,supermicro-ATX-PCB,73757065-726d-4696-9372-6f2d4154582d,rev?*%
%TF.SameCoordinates,Original*%
%TF.FileFunction,Legend,Top*%
%TF.FilePolarity,Positive*%
%FSLAX46Y46*%
G04 Gerber Fmt 4.6, Leading zero omitted, Abs format (unit mm)*
G04 Created by KiCad (PCBNEW 7.0.9-1.fc39) date 2023-12-29 10:13:10*
%MOMM*%
%LPD*%
G01*
G04 APERTURE LIST*
%ADD10C,0.150000*%
%ADD11C,0.100000*%
%ADD12C,0.120000*%
G04 APERTURE END LIST*
D10*
X107315000Y-82550000D02*
X113665000Y-82550000D01*
X113665000Y-85090000D01*
X107315000Y-85090000D01*
X107315000Y-82550000D01*
G36*
X107315000Y-82550000D02*
G01*
X113665000Y-82550000D01*
X113665000Y-85090000D01*
X107315000Y-85090000D01*
X107315000Y-82550000D01*
G37*
X100330000Y-67310000D02*
X105410000Y-67310000D01*
X105410000Y-80010000D01*
X100330000Y-80010000D01*
X100330000Y-67310000D01*
X100330000Y-67310000D02*
X102870000Y-67310000D01*
X102870000Y-69850000D01*
X100330000Y-69850000D01*
X100330000Y-67310000D01*
G36*
X100330000Y-67310000D02*
G01*
X102870000Y-67310000D01*
X102870000Y-69850000D01*
X100330000Y-69850000D01*
X100330000Y-67310000D01*
G37*
X103378095Y-66227438D02*
X103282857Y-66179819D01*
X103282857Y-66179819D02*
X103140000Y-66179819D01*
X103140000Y-66179819D02*
X102997143Y-66227438D01*
X102997143Y-66227438D02*
X102901905Y-66322676D01*
X102901905Y-66322676D02*
X102854286Y-66417914D01*
X102854286Y-66417914D02*
X102806667Y-66608390D01*
X102806667Y-66608390D02*
X102806667Y-66751247D01*
X102806667Y-66751247D02*
X102854286Y-66941723D01*
X102854286Y-66941723D02*
X102901905Y-67036961D01*
X102901905Y-67036961D02*
X102997143Y-67132200D01*
X102997143Y-67132200D02*
X103140000Y-67179819D01*
X103140000Y-67179819D02*
X103235238Y-67179819D01*
X103235238Y-67179819D02*
X103378095Y-67132200D01*
X103378095Y-67132200D02*
X103425714Y-67084580D01*
X103425714Y-67084580D02*
X103425714Y-66751247D01*
X103425714Y-66751247D02*
X103235238Y-66751247D01*
X103854286Y-67179819D02*
X103854286Y-66179819D01*
X103854286Y-66179819D02*
X104425714Y-67179819D01*
X104425714Y-67179819D02*
X104425714Y-66179819D01*
X104901905Y-67179819D02*
X104901905Y-66179819D01*
X104901905Y-66179819D02*
X105140000Y-66179819D01*
X105140000Y-66179819D02*
X105282857Y-66227438D01*
X105282857Y-66227438D02*
X105378095Y-66322676D01*
X105378095Y-66322676D02*
X105425714Y-66417914D01*
X105425714Y-66417914D02*
X105473333Y-66608390D01*
X105473333Y-66608390D02*
X105473333Y-66751247D01*
X105473333Y-66751247D02*
X105425714Y-66941723D01*
X105425714Y-66941723D02*
X105378095Y-67036961D01*
X105378095Y-67036961D02*
X105282857Y-67132200D01*
X105282857Y-67132200D02*
X105140000Y-67179819D01*
X105140000Y-67179819D02*
X104901905Y-67179819D01*
D11*
X114054598Y-66358633D02*
X113921265Y-66025300D01*
X113826027Y-66358633D02*
X113826027Y-65658633D01*
X113826027Y-65658633D02*
X113978408Y-65658633D01*
X113978408Y-65658633D02*
X114016503Y-65691966D01*
X114016503Y-65691966D02*
X114035550Y-65725300D01*
X114035550Y-65725300D02*
X114054598Y-65791966D01*
X114054598Y-65791966D02*
X114054598Y-65891966D01*
X114054598Y-65891966D02*
X114035550Y-65958633D01*
X114035550Y-65958633D02*
X114016503Y-65991966D01*
X114016503Y-65991966D02*
X113978408Y-66025300D01*
X113978408Y-66025300D02*
X113826027Y-66025300D01*
X114206979Y-66325300D02*
X114264122Y-66358633D01*
X114264122Y-66358633D02*
X114359360Y-66358633D01*
X114359360Y-66358633D02*
X114397455Y-66325300D01*
X114397455Y-66325300D02*
X114416503Y-66291966D01*
X114416503Y-66291966D02*
X114435550Y-66225300D01*
X114435550Y-66225300D02*
X114435550Y-66158633D01*
X114435550Y-66158633D02*
X114416503Y-66091966D01*
X114416503Y-66091966D02*
X114397455Y-66058633D01*
X114397455Y-66058633D02*
X114359360Y-66025300D01*
X114359360Y-66025300D02*
X114283169Y-65991966D01*
X114283169Y-65991966D02*
X114245074Y-65958633D01*
X114245074Y-65958633D02*
X114226027Y-65925300D01*
X114226027Y-65925300D02*
X114206979Y-65858633D01*
X114206979Y-65858633D02*
X114206979Y-65791966D01*
X114206979Y-65791966D02*
X114226027Y-65725300D01*
X114226027Y-65725300D02*
X114245074Y-65691966D01*
X114245074Y-65691966D02*
X114283169Y-65658633D01*
X114283169Y-65658633D02*
X114378408Y-65658633D01*
X114378408Y-65658633D02*
X114435550Y-65691966D01*
X114549836Y-65658633D02*
X114778407Y-65658633D01*
X114664121Y-66358633D02*
X114664121Y-65658633D01*
X114816503Y-66425300D02*
X115121264Y-66425300D01*
X115349836Y-65991966D02*
X115406979Y-66025300D01*
X115406979Y-66025300D02*
X115426026Y-66058633D01*
X115426026Y-66058633D02*
X115445074Y-66125300D01*
X115445074Y-66125300D02*
X115445074Y-66225300D01*
X115445074Y-66225300D02*
X115426026Y-66291966D01*
X115426026Y-66291966D02*
X115406979Y-66325300D01*
X115406979Y-66325300D02*
X115368884Y-66358633D01*
X115368884Y-66358633D02*
X115216503Y-66358633D01*
X115216503Y-66358633D02*
X115216503Y-65658633D01*
X115216503Y-65658633D02*
X115349836Y-65658633D01*
X115349836Y-65658633D02*
X115387931Y-65691966D01*
X115387931Y-65691966D02*
X115406979Y-65725300D01*
X115406979Y-65725300D02*
X115426026Y-65791966D01*
X115426026Y-65791966D02*
X115426026Y-65858633D01*
X115426026Y-65858633D02*
X115406979Y-65925300D01*
X115406979Y-65925300D02*
X115387931Y-65958633D01*
X115387931Y-65958633D02*
X115349836Y-65991966D01*
X115349836Y-65991966D02*
X115216503Y-65991966D01*
X115616503Y-65658633D02*
X115616503Y-66225300D01*
X115616503Y-66225300D02*
X115635550Y-66291966D01*
X115635550Y-66291966D02*
X115654598Y-66325300D01*
X115654598Y-66325300D02*
X115692693Y-66358633D01*
X115692693Y-66358633D02*
X115768884Y-66358633D01*
X115768884Y-66358633D02*
X115806979Y-66325300D01*
X115806979Y-66325300D02*
X115826026Y-66291966D01*
X115826026Y-66291966D02*
X115845074Y-66225300D01*
X115845074Y-66225300D02*
X115845074Y-65658633D01*
X115978408Y-65658633D02*
X116206979Y-65658633D01*
X116092693Y-66358633D02*
X116092693Y-65658633D01*
X116283170Y-65658633D02*
X116511741Y-65658633D01*
X116397455Y-66358633D02*
X116397455Y-65658633D01*
D10*
X108124762Y-88769819D02*
X108124762Y-87769819D01*
X108124762Y-87769819D02*
X108696190Y-88769819D01*
X108696190Y-88769819D02*
X108696190Y-87769819D01*
X109172381Y-88769819D02*
X109172381Y-87769819D01*
X109172381Y-87769819D02*
X109505714Y-88484104D01*
X109505714Y-88484104D02*
X109839047Y-87769819D01*
X109839047Y-87769819D02*
X109839047Y-88769819D01*
X110315238Y-88769819D02*
X110315238Y-87769819D01*
X106118866Y-79489046D02*
X106118866Y-78879523D01*
X106499819Y-79184284D02*
X105737914Y-79184284D01*
X106499819Y-78498570D02*
X105499819Y-78498570D01*
X105976009Y-78498570D02*
X105976009Y-78041427D01*
X106499819Y-78041427D02*
X105499819Y-78041427D01*
X106499819Y-77660475D02*
X105499819Y-77660475D01*
X105499819Y-77660475D02*
X105499819Y-77469999D01*
X105499819Y-77469999D02*
X105547438Y-77355713D01*
X105547438Y-77355713D02*
X105642676Y-77279523D01*
X105642676Y-77279523D02*
X105737914Y-77241428D01*
X105737914Y-77241428D02*
X105928390Y-77203332D01*
X105928390Y-77203332D02*
X106071247Y-77203332D01*
X106071247Y-77203332D02*
X106261723Y-77241428D01*
X106261723Y-77241428D02*
X106356961Y-77279523D01*
X106356961Y-77279523D02*
X106452200Y-77355713D01*
X106452200Y-77355713D02*
X106499819Y-77469999D01*
X106499819Y-77469999D02*
X106499819Y-77660475D01*
X106499819Y-76860475D02*
X105499819Y-76860475D01*
X105499819Y-76860475D02*
X105499819Y-76669999D01*
X105499819Y-76669999D02*
X105547438Y-76555713D01*
X105547438Y-76555713D02*
X105642676Y-76479523D01*
X105642676Y-76479523D02*
X105737914Y-76441428D01*
X105737914Y-76441428D02*
X105928390Y-76403332D01*
X105928390Y-76403332D02*
X106071247Y-76403332D01*
X106071247Y-76403332D02*
X106261723Y-76441428D01*
X106261723Y-76441428D02*
X106356961Y-76479523D01*
X106356961Y-76479523D02*
X106452200Y-76555713D01*
X106452200Y-76555713D02*
X106499819Y-76669999D01*
X106499819Y-76669999D02*
X106499819Y-76860475D01*
X106118866Y-76060475D02*
X106118866Y-75450952D01*
D11*
X113826027Y-76251966D02*
X114130789Y-76251966D01*
X113978408Y-76518633D02*
X113978408Y-75985300D01*
X114606979Y-75785300D02*
X114264122Y-76685300D01*
X114740313Y-76251966D02*
X115045075Y-76251966D01*
X115540313Y-76518633D02*
X115540313Y-75818633D01*
X115540313Y-75818633D02*
X115768884Y-76518633D01*
X115768884Y-76518633D02*
X115768884Y-75818633D01*
X115959361Y-76518633D02*
X115959361Y-75818633D01*
X116378408Y-76451966D02*
X116359360Y-76485300D01*
X116359360Y-76485300D02*
X116302218Y-76518633D01*
X116302218Y-76518633D02*
X116264122Y-76518633D01*
X116264122Y-76518633D02*
X116206979Y-76485300D01*
X116206979Y-76485300D02*
X116168884Y-76418633D01*
X116168884Y-76418633D02*
X116149837Y-76351966D01*
X116149837Y-76351966D02*
X116130789Y-76218633D01*
X116130789Y-76218633D02*
X116130789Y-76118633D01*
X116130789Y-76118633D02*
X116149837Y-75985300D01*
X116149837Y-75985300D02*
X116168884Y-75918633D01*
X116168884Y-75918633D02*
X116206979Y-75851966D01*
X116206979Y-75851966D02*
X116264122Y-75818633D01*
X116264122Y-75818633D02*
X116302218Y-75818633D01*
X116302218Y-75818633D02*
X116359360Y-75851966D01*
X116359360Y-75851966D02*
X116378408Y-75885300D01*
X116759360Y-76518633D02*
X116530789Y-76518633D01*
X116645075Y-76518633D02*
X116645075Y-75818633D01*
X116645075Y-75818633D02*
X116606979Y-75918633D01*
X116606979Y-75918633D02*
X116568884Y-75985300D01*
X116568884Y-75985300D02*
X116530789Y-76018633D01*
X113826027Y-73711966D02*
X114130789Y-73711966D01*
X113978408Y-73978633D02*
X113978408Y-73445300D01*
X114606979Y-73245300D02*
X114264122Y-74145300D01*
X114740313Y-73711966D02*
X115045075Y-73711966D01*
X115540313Y-73978633D02*
X115540313Y-73278633D01*
X115540313Y-73278633D02*
X115768884Y-73978633D01*
X115768884Y-73978633D02*
X115768884Y-73278633D01*
X115959361Y-73978633D02*
X115959361Y-73278633D01*
X116378408Y-73911966D02*
X116359360Y-73945300D01*
X116359360Y-73945300D02*
X116302218Y-73978633D01*
X116302218Y-73978633D02*
X116264122Y-73978633D01*
X116264122Y-73978633D02*
X116206979Y-73945300D01*
X116206979Y-73945300D02*
X116168884Y-73878633D01*
X116168884Y-73878633D02*
X116149837Y-73811966D01*
X116149837Y-73811966D02*
X116130789Y-73678633D01*
X116130789Y-73678633D02*
X116130789Y-73578633D01*
X116130789Y-73578633D02*
X116149837Y-73445300D01*
X116149837Y-73445300D02*
X116168884Y-73378633D01*
X116168884Y-73378633D02*
X116206979Y-73311966D01*
X116206979Y-73311966D02*
X116264122Y-73278633D01*
X116264122Y-73278633D02*
X116302218Y-73278633D01*
X116302218Y-73278633D02*
X116359360Y-73311966D01*
X116359360Y-73311966D02*
X116378408Y-73345300D01*
X116530789Y-73345300D02*
X116549837Y-73311966D01*
X116549837Y-73311966D02*
X116587932Y-73278633D01*
X116587932Y-73278633D02*
X116683170Y-73278633D01*
X116683170Y-73278633D02*
X116721265Y-73311966D01*
X116721265Y-73311966D02*
X116740313Y-73345300D01*
X116740313Y-73345300D02*
X116759360Y-73411966D01*
X116759360Y-73411966D02*
X116759360Y-73478633D01*
X116759360Y-73478633D02*
X116740313Y-73578633D01*
X116740313Y-73578633D02*
X116511741Y-73978633D01*
X116511741Y-73978633D02*
X116759360Y-73978633D01*
D10*
X124602779Y-81433866D02*
X125364684Y-81433866D01*
X124983731Y-81814819D02*
X124983731Y-81052914D01*
X124602779Y-86513866D02*
X125364684Y-86513866D01*
X124983731Y-86894819D02*
X124983731Y-86132914D01*
D11*
X113826027Y-71171966D02*
X114130789Y-71171966D01*
X113978408Y-71438633D02*
X113978408Y-70905300D01*
X114606979Y-70705300D02*
X114264122Y-71605300D01*
X114740313Y-71171966D02*
X115045075Y-71171966D01*
X115540313Y-70738633D02*
X115540313Y-71305300D01*
X115540313Y-71305300D02*
X115559360Y-71371966D01*
X115559360Y-71371966D02*
X115578408Y-71405300D01*
X115578408Y-71405300D02*
X115616503Y-71438633D01*
X115616503Y-71438633D02*
X115692694Y-71438633D01*
X115692694Y-71438633D02*
X115730789Y-71405300D01*
X115730789Y-71405300D02*
X115749836Y-71371966D01*
X115749836Y-71371966D02*
X115768884Y-71305300D01*
X115768884Y-71305300D02*
X115768884Y-70738633D01*
X115959361Y-71438633D02*
X115959361Y-70738633D01*
X116149837Y-71438633D02*
X116149837Y-70738633D01*
X116149837Y-70738633D02*
X116245075Y-70738633D01*
X116245075Y-70738633D02*
X116302218Y-70771966D01*
X116302218Y-70771966D02*
X116340313Y-70838633D01*
X116340313Y-70838633D02*
X116359360Y-70905300D01*
X116359360Y-70905300D02*
X116378408Y-71038633D01*
X116378408Y-71038633D02*
X116378408Y-71138633D01*
X116378408Y-71138633D02*
X116359360Y-71271966D01*
X116359360Y-71271966D02*
X116340313Y-71338633D01*
X116340313Y-71338633D02*
X116302218Y-71405300D01*
X116302218Y-71405300D02*
X116245075Y-71438633D01*
X116245075Y-71438633D02*
X116149837Y-71438633D01*
X113826027Y-81331966D02*
X114130789Y-81331966D01*
X113978408Y-81598633D02*
X113978408Y-81065300D01*
X114606979Y-80865300D02*
X114264122Y-81765300D01*
X114740313Y-81331966D02*
X115045075Y-81331966D01*
X115540313Y-81598633D02*
X115540313Y-80898633D01*
X115540313Y-80898633D02*
X115692694Y-80898633D01*
X115692694Y-80898633D02*
X115730789Y-80931966D01*
X115730789Y-80931966D02*
X115749836Y-80965300D01*
X115749836Y-80965300D02*
X115768884Y-81031966D01*
X115768884Y-81031966D02*
X115768884Y-81131966D01*
X115768884Y-81131966D02*
X115749836Y-81198633D01*
X115749836Y-81198633D02*
X115730789Y-81231966D01*
X115730789Y-81231966D02*
X115692694Y-81265300D01*
X115692694Y-81265300D02*
X115540313Y-81265300D01*
X115902217Y-80898633D02*
X115997455Y-81598633D01*
X115997455Y-81598633D02*
X116073646Y-81098633D01*
X116073646Y-81098633D02*
X116149836Y-81598633D01*
X116149836Y-81598633D02*
X116245075Y-80898633D01*
X116626027Y-81598633D02*
X116492694Y-81265300D01*
X116397456Y-81598633D02*
X116397456Y-80898633D01*
X116397456Y-80898633D02*
X116549837Y-80898633D01*
X116549837Y-80898633D02*
X116587932Y-80931966D01*
X116587932Y-80931966D02*
X116606979Y-80965300D01*
X116606979Y-80965300D02*
X116626027Y-81031966D01*
X116626027Y-81031966D02*
X116626027Y-81131966D01*
X116626027Y-81131966D02*
X116606979Y-81198633D01*
X116606979Y-81198633D02*
X116587932Y-81231966D01*
X116587932Y-81231966D02*
X116549837Y-81265300D01*
X116549837Y-81265300D02*
X116397456Y-81265300D01*
D10*
X124602779Y-68733866D02*
X125364684Y-68733866D01*
X124983731Y-69114819D02*
X124983731Y-68352914D01*
X100149819Y-73989999D02*
X99149819Y-73989999D01*
X99149819Y-73989999D02*
X99149819Y-73532856D01*
X99149819Y-73532856D02*
X99197438Y-73418571D01*
X99197438Y-73418571D02*
X99245057Y-73361428D01*
X99245057Y-73361428D02*
X99340295Y-73304285D01*
X99340295Y-73304285D02*
X99483152Y-73304285D01*
X99483152Y-73304285D02*
X99578390Y-73361428D01*
X99578390Y-73361428D02*
X99626009Y-73418571D01*
X99626009Y-73418571D02*
X99673628Y-73532856D01*
X99673628Y-73532856D02*
X99673628Y-73989999D01*
X99149819Y-72904285D02*
X100149819Y-72618571D01*
X100149819Y-72618571D02*
X99435533Y-72389999D01*
X99435533Y-72389999D02*
X100149819Y-72161428D01*
X100149819Y-72161428D02*
X99149819Y-71875714D01*
X100149819Y-70732856D02*
X99673628Y-71132856D01*
X100149819Y-71418570D02*
X99149819Y-71418570D01*
X99149819Y-71418570D02*
X99149819Y-70961427D01*
X99149819Y-70961427D02*
X99197438Y-70847142D01*
X99197438Y-70847142D02*
X99245057Y-70789999D01*
X99245057Y-70789999D02*
X99340295Y-70732856D01*
X99340295Y-70732856D02*
X99483152Y-70732856D01*
X99483152Y-70732856D02*
X99578390Y-70789999D01*
X99578390Y-70789999D02*
X99626009Y-70847142D01*
X99626009Y-70847142D02*
X99673628Y-70961427D01*
X99673628Y-70961427D02*
X99673628Y-71418570D01*
X106499819Y-73551904D02*
X106023628Y-73818571D01*
X106499819Y-74009047D02*
X105499819Y-74009047D01*
X105499819Y-74009047D02*
X105499819Y-73704285D01*
X105499819Y-73704285D02*
X105547438Y-73628095D01*
X105547438Y-73628095D02*
X105595057Y-73590000D01*
X105595057Y-73590000D02*
X105690295Y-73551904D01*
X105690295Y-73551904D02*
X105833152Y-73551904D01*
X105833152Y-73551904D02*
X105928390Y-73590000D01*
X105928390Y-73590000D02*
X105976009Y-73628095D01*
X105976009Y-73628095D02*
X106023628Y-73704285D01*
X106023628Y-73704285D02*
X106023628Y-74009047D01*
X105976009Y-73209047D02*
X105976009Y-72942381D01*
X106499819Y-72828095D02*
X106499819Y-73209047D01*
X106499819Y-73209047D02*
X105499819Y-73209047D01*
X105499819Y-73209047D02*
X105499819Y-72828095D01*
X106452200Y-72523333D02*
X106499819Y-72409047D01*
X106499819Y-72409047D02*
X106499819Y-72218571D01*
X106499819Y-72218571D02*
X106452200Y-72142380D01*
X106452200Y-72142380D02*
X106404580Y-72104285D01*
X106404580Y-72104285D02*
X106309342Y-72066190D01*
X106309342Y-72066190D02*
X106214104Y-72066190D01*
X106214104Y-72066190D02*
X106118866Y-72104285D01*
X106118866Y-72104285D02*
X106071247Y-72142380D01*
X106071247Y-72142380D02*
X106023628Y-72218571D01*
X106023628Y-72218571D02*
X105976009Y-72370952D01*
X105976009Y-72370952D02*
X105928390Y-72447142D01*
X105928390Y-72447142D02*
X105880771Y-72485237D01*
X105880771Y-72485237D02*
X105785533Y-72523333D01*
X105785533Y-72523333D02*
X105690295Y-72523333D01*
X105690295Y-72523333D02*
X105595057Y-72485237D01*
X105595057Y-72485237D02*
X105547438Y-72447142D01*
X105547438Y-72447142D02*
X105499819Y-72370952D01*
X105499819Y-72370952D02*
X105499819Y-72180475D01*
X105499819Y-72180475D02*
X105547438Y-72066190D01*
X105976009Y-71723332D02*
X105976009Y-71456666D01*
X106499819Y-71342380D02*
X106499819Y-71723332D01*
X106499819Y-71723332D02*
X105499819Y-71723332D01*
X105499819Y-71723332D02*
X105499819Y-71342380D01*
X105499819Y-71113808D02*
X105499819Y-70656665D01*
X106499819Y-70885237D02*
X105499819Y-70885237D01*
D11*
X113826027Y-63818633D02*
X113826027Y-63118633D01*
X113826027Y-63118633D02*
X113978408Y-63118633D01*
X113978408Y-63118633D02*
X114016503Y-63151966D01*
X114016503Y-63151966D02*
X114035550Y-63185300D01*
X114035550Y-63185300D02*
X114054598Y-63251966D01*
X114054598Y-63251966D02*
X114054598Y-63351966D01*
X114054598Y-63351966D02*
X114035550Y-63418633D01*
X114035550Y-63418633D02*
X114016503Y-63451966D01*
X114016503Y-63451966D02*
X113978408Y-63485300D01*
X113978408Y-63485300D02*
X113826027Y-63485300D01*
X114187931Y-63118633D02*
X114283169Y-63818633D01*
X114283169Y-63818633D02*
X114359360Y-63318633D01*
X114359360Y-63318633D02*
X114435550Y-63818633D01*
X114435550Y-63818633D02*
X114530789Y-63118633D01*
X114911741Y-63818633D02*
X114778408Y-63485300D01*
X114683170Y-63818633D02*
X114683170Y-63118633D01*
X114683170Y-63118633D02*
X114835551Y-63118633D01*
X114835551Y-63118633D02*
X114873646Y-63151966D01*
X114873646Y-63151966D02*
X114892693Y-63185300D01*
X114892693Y-63185300D02*
X114911741Y-63251966D01*
X114911741Y-63251966D02*
X114911741Y-63351966D01*
X114911741Y-63351966D02*
X114892693Y-63418633D01*
X114892693Y-63418633D02*
X114873646Y-63451966D01*
X114873646Y-63451966D02*
X114835551Y-63485300D01*
X114835551Y-63485300D02*
X114683170Y-63485300D01*
X114987932Y-63885300D02*
X115292693Y-63885300D01*
X115521265Y-63451966D02*
X115578408Y-63485300D01*
X115578408Y-63485300D02*
X115597455Y-63518633D01*
X115597455Y-63518633D02*
X115616503Y-63585300D01*
X115616503Y-63585300D02*
X115616503Y-63685300D01*
X115616503Y-63685300D02*
X115597455Y-63751966D01*
X115597455Y-63751966D02*
X115578408Y-63785300D01*
X115578408Y-63785300D02*
X115540313Y-63818633D01*
X115540313Y-63818633D02*
X115387932Y-63818633D01*
X115387932Y-63818633D02*
X115387932Y-63118633D01*
X115387932Y-63118633D02*
X115521265Y-63118633D01*
X115521265Y-63118633D02*
X115559360Y-63151966D01*
X115559360Y-63151966D02*
X115578408Y-63185300D01*
X115578408Y-63185300D02*
X115597455Y-63251966D01*
X115597455Y-63251966D02*
X115597455Y-63318633D01*
X115597455Y-63318633D02*
X115578408Y-63385300D01*
X115578408Y-63385300D02*
X115559360Y-63418633D01*
X115559360Y-63418633D02*
X115521265Y-63451966D01*
X115521265Y-63451966D02*
X115387932Y-63451966D01*
X115787932Y-63118633D02*
X115787932Y-63685300D01*
X115787932Y-63685300D02*
X115806979Y-63751966D01*
X115806979Y-63751966D02*
X115826027Y-63785300D01*
X115826027Y-63785300D02*
X115864122Y-63818633D01*
X115864122Y-63818633D02*
X115940313Y-63818633D01*
X115940313Y-63818633D02*
X115978408Y-63785300D01*
X115978408Y-63785300D02*
X115997455Y-63751966D01*
X115997455Y-63751966D02*
X116016503Y-63685300D01*
X116016503Y-63685300D02*
X116016503Y-63118633D01*
X116149837Y-63118633D02*
X116378408Y-63118633D01*
X116264122Y-63818633D02*
X116264122Y-63118633D01*
X116454599Y-63118633D02*
X116683170Y-63118633D01*
X116568884Y-63818633D02*
X116568884Y-63118633D01*
D10*
X124602779Y-63653866D02*
X125364684Y-63653866D01*
X124983731Y-64034819D02*
X124983731Y-63272914D01*
X99768866Y-79527142D02*
X99768866Y-78917619D01*
X100149819Y-79222380D02*
X99387914Y-79222380D01*
X100149819Y-78536666D02*
X99149819Y-78536666D01*
X99149819Y-78536666D02*
X99149819Y-78231904D01*
X99149819Y-78231904D02*
X99197438Y-78155714D01*
X99197438Y-78155714D02*
X99245057Y-78117619D01*
X99245057Y-78117619D02*
X99340295Y-78079523D01*
X99340295Y-78079523D02*
X99483152Y-78079523D01*
X99483152Y-78079523D02*
X99578390Y-78117619D01*
X99578390Y-78117619D02*
X99626009Y-78155714D01*
X99626009Y-78155714D02*
X99673628Y-78231904D01*
X99673628Y-78231904D02*
X99673628Y-78536666D01*
X99149819Y-77812857D02*
X100149819Y-77622381D01*
X100149819Y-77622381D02*
X99435533Y-77470000D01*
X99435533Y-77470000D02*
X100149819Y-77317619D01*
X100149819Y-77317619D02*
X99149819Y-77127143D01*
X100149819Y-76365237D02*
X99673628Y-76631904D01*
X100149819Y-76822380D02*
X99149819Y-76822380D01*
X99149819Y-76822380D02*
X99149819Y-76517618D01*
X99149819Y-76517618D02*
X99197438Y-76441428D01*
X99197438Y-76441428D02*
X99245057Y-76403333D01*
X99245057Y-76403333D02*
X99340295Y-76365237D01*
X99340295Y-76365237D02*
X99483152Y-76365237D01*
X99483152Y-76365237D02*
X99578390Y-76403333D01*
X99578390Y-76403333D02*
X99626009Y-76441428D01*
X99626009Y-76441428D02*
X99673628Y-76517618D01*
X99673628Y-76517618D02*
X99673628Y-76822380D01*
X99768866Y-76022380D02*
X99768866Y-75412857D01*
D11*
X113826027Y-78791966D02*
X114130789Y-78791966D01*
X113978408Y-79058633D02*
X113978408Y-78525300D01*
X114606979Y-78325300D02*
X114264122Y-79225300D01*
X114740313Y-78791966D02*
X115045075Y-78791966D01*
X115540313Y-79058633D02*
X115540313Y-78358633D01*
X115540313Y-78691966D02*
X115768884Y-78691966D01*
X115768884Y-79058633D02*
X115768884Y-78358633D01*
X115959361Y-79058633D02*
X115959361Y-78358633D01*
X115959361Y-78358633D02*
X116054599Y-78358633D01*
X116054599Y-78358633D02*
X116111742Y-78391966D01*
X116111742Y-78391966D02*
X116149837Y-78458633D01*
X116149837Y-78458633D02*
X116168884Y-78525300D01*
X116168884Y-78525300D02*
X116187932Y-78658633D01*
X116187932Y-78658633D02*
X116187932Y-78758633D01*
X116187932Y-78758633D02*
X116168884Y-78891966D01*
X116168884Y-78891966D02*
X116149837Y-78958633D01*
X116149837Y-78958633D02*
X116111742Y-79025300D01*
X116111742Y-79025300D02*
X116054599Y-79058633D01*
X116054599Y-79058633D02*
X115959361Y-79058633D01*
X116359361Y-79058633D02*
X116359361Y-78358633D01*
X116359361Y-78358633D02*
X116454599Y-78358633D01*
X116454599Y-78358633D02*
X116511742Y-78391966D01*
X116511742Y-78391966D02*
X116549837Y-78458633D01*
X116549837Y-78458633D02*
X116568884Y-78525300D01*
X116568884Y-78525300D02*
X116587932Y-78658633D01*
X116587932Y-78658633D02*
X116587932Y-78758633D01*
X116587932Y-78758633D02*
X116568884Y-78891966D01*
X116568884Y-78891966D02*
X116549837Y-78958633D01*
X116549837Y-78958633D02*
X116511742Y-79025300D01*
X116511742Y-79025300D02*
X116454599Y-79058633D01*
X116454599Y-79058633D02*
X116359361Y-79058633D01*
X113826027Y-68631966D02*
X114130789Y-68631966D01*
X113978408Y-68898633D02*
X113978408Y-68365300D01*
X114606979Y-68165300D02*
X114264122Y-69065300D01*
X114740313Y-68631966D02*
X115045075Y-68631966D01*
X115540313Y-68898633D02*
X115540313Y-68198633D01*
X115540313Y-68198633D02*
X115692694Y-68198633D01*
X115692694Y-68198633D02*
X115730789Y-68231966D01*
X115730789Y-68231966D02*
X115749836Y-68265300D01*
X115749836Y-68265300D02*
X115768884Y-68331966D01*
X115768884Y-68331966D02*
X115768884Y-68431966D01*
X115768884Y-68431966D02*
X115749836Y-68498633D01*
X115749836Y-68498633D02*
X115730789Y-68531966D01*
X115730789Y-68531966D02*
X115692694Y-68565300D01*
X115692694Y-68565300D02*
X115540313Y-68565300D01*
X115902217Y-68198633D02*
X115997455Y-68898633D01*
X115997455Y-68898633D02*
X116073646Y-68398633D01*
X116073646Y-68398633D02*
X116149836Y-68898633D01*
X116149836Y-68898633D02*
X116245075Y-68198633D01*
X116626027Y-68898633D02*
X116492694Y-68565300D01*
X116397456Y-68898633D02*
X116397456Y-68198633D01*
X116397456Y-68198633D02*
X116549837Y-68198633D01*
X116549837Y-68198633D02*
X116587932Y-68231966D01*
X116587932Y-68231966D02*
X116606979Y-68265300D01*
X116606979Y-68265300D02*
X116626027Y-68331966D01*
X116626027Y-68331966D02*
X116626027Y-68431966D01*
X116626027Y-68431966D02*
X116606979Y-68498633D01*
X116606979Y-68498633D02*
X116587932Y-68531966D01*
X116587932Y-68531966D02*
X116549837Y-68565300D01*
X116549837Y-68565300D02*
X116397456Y-68565300D01*
X116702218Y-68965300D02*
X117006979Y-68965300D01*
X117235551Y-68531966D02*
X117102218Y-68531966D01*
X117102218Y-68898633D02*
X117102218Y-68198633D01*
X117102218Y-68198633D02*
X117292694Y-68198633D01*
X117426027Y-68698633D02*
X117616503Y-68698633D01*
X117387932Y-68898633D02*
X117521265Y-68198633D01*
X117521265Y-68198633D02*
X117654598Y-68898633D01*
X117787932Y-68898633D02*
X117787932Y-68198633D01*
X118168884Y-68898633D02*
X117978408Y-68898633D01*
X117978408Y-68898633D02*
X117978408Y-68198633D01*
D10*
X120420000Y-70364819D02*
X120420000Y-71174342D01*
X120420000Y-71174342D02*
X120467619Y-71269580D01*
X120467619Y-71269580D02*
X120515238Y-71317200D01*
X120515238Y-71317200D02*
X120610476Y-71364819D01*
X120610476Y-71364819D02*
X120800952Y-71364819D01*
X120800952Y-71364819D02*
X120896190Y-71317200D01*
X120896190Y-71317200D02*
X120943809Y-71269580D01*
X120943809Y-71269580D02*
X120991428Y-71174342D01*
X120991428Y-71174342D02*
X120991428Y-70364819D01*
X121467619Y-71364819D02*
X121467619Y-70364819D01*
X121943809Y-71364819D02*
X121943809Y-70364819D01*
X121943809Y-70364819D02*
X122181904Y-70364819D01*
X122181904Y-70364819D02*
X122324761Y-70412438D01*
X122324761Y-70412438D02*
X122419999Y-70507676D01*
X122419999Y-70507676D02*
X122467618Y-70602914D01*
X122467618Y-70602914D02*
X122515237Y-70793390D01*
X122515237Y-70793390D02*
X122515237Y-70936247D01*
X122515237Y-70936247D02*
X122467618Y-71126723D01*
X122467618Y-71126723D02*
X122419999Y-71221961D01*
X122419999Y-71221961D02*
X122324761Y-71317200D01*
X122324761Y-71317200D02*
X122181904Y-71364819D01*
X122181904Y-71364819D02*
X121943809Y-71364819D01*
X123467618Y-71364819D02*
X122896190Y-71364819D01*
X123181904Y-71364819D02*
X123181904Y-70364819D01*
X123181904Y-70364819D02*
X123086666Y-70507676D01*
X123086666Y-70507676D02*
X122991428Y-70602914D01*
X122991428Y-70602914D02*
X122896190Y-70650533D01*
X118229524Y-66284819D02*
X118229524Y-65284819D01*
X118229524Y-65284819D02*
X118610476Y-65284819D01*
X118610476Y-65284819D02*
X118705714Y-65332438D01*
X118705714Y-65332438D02*
X118753333Y-65380057D01*
X118753333Y-65380057D02*
X118800952Y-65475295D01*
X118800952Y-65475295D02*
X118800952Y-65618152D01*
X118800952Y-65618152D02*
X118753333Y-65713390D01*
X118753333Y-65713390D02*
X118705714Y-65761009D01*
X118705714Y-65761009D02*
X118610476Y-65808628D01*
X118610476Y-65808628D02*
X118229524Y-65808628D01*
X119134286Y-65284819D02*
X119372381Y-66284819D01*
X119372381Y-66284819D02*
X119562857Y-65570533D01*
X119562857Y-65570533D02*
X119753333Y-66284819D01*
X119753333Y-66284819D02*
X119991429Y-65284819D01*
X120943809Y-66284819D02*
X120610476Y-65808628D01*
X120372381Y-66284819D02*
X120372381Y-65284819D01*
X120372381Y-65284819D02*
X120753333Y-65284819D01*
X120753333Y-65284819D02*
X120848571Y-65332438D01*
X120848571Y-65332438D02*
X120896190Y-65380057D01*
X120896190Y-65380057D02*
X120943809Y-65475295D01*
X120943809Y-65475295D02*
X120943809Y-65618152D01*
X120943809Y-65618152D02*
X120896190Y-65713390D01*
X120896190Y-65713390D02*
X120848571Y-65761009D01*
X120848571Y-65761009D02*
X120753333Y-65808628D01*
X120753333Y-65808628D02*
X120372381Y-65808628D01*
X121134286Y-66380057D02*
X121896190Y-66380057D01*
X122467619Y-65761009D02*
X122134286Y-65761009D01*
X122134286Y-66284819D02*
X122134286Y-65284819D01*
X122134286Y-65284819D02*
X122610476Y-65284819D01*
X122943810Y-65999104D02*
X123420000Y-65999104D01*
X122848572Y-66284819D02*
X123181905Y-65284819D01*
X123181905Y-65284819D02*
X123515238Y-66284819D01*
X123848572Y-66284819D02*
X123848572Y-65284819D01*
X124800952Y-66284819D02*
X124324762Y-66284819D01*
X124324762Y-66284819D02*
X124324762Y-65284819D01*
X125658095Y-66284819D02*
X125086667Y-66284819D01*
X125372381Y-66284819D02*
X125372381Y-65284819D01*
X125372381Y-65284819D02*
X125277143Y-65427676D01*
X125277143Y-65427676D02*
X125181905Y-65522914D01*
X125181905Y-65522914D02*
X125086667Y-65570533D01*
X120166000Y-84064819D02*
X120166000Y-83064819D01*
X120166000Y-83064819D02*
X120737428Y-84064819D01*
X120737428Y-84064819D02*
X120737428Y-83064819D01*
X121213619Y-84064819D02*
X121213619Y-83064819D01*
X122261237Y-83969580D02*
X122213618Y-84017200D01*
X122213618Y-84017200D02*
X122070761Y-84064819D01*
X122070761Y-84064819D02*
X121975523Y-84064819D01*
X121975523Y-84064819D02*
X121832666Y-84017200D01*
X121832666Y-84017200D02*
X121737428Y-83921961D01*
X121737428Y-83921961D02*
X121689809Y-83826723D01*
X121689809Y-83826723D02*
X121642190Y-83636247D01*
X121642190Y-83636247D02*
X121642190Y-83493390D01*
X121642190Y-83493390D02*
X121689809Y-83302914D01*
X121689809Y-83302914D02*
X121737428Y-83207676D01*
X121737428Y-83207676D02*
X121832666Y-83112438D01*
X121832666Y-83112438D02*
X121975523Y-83064819D01*
X121975523Y-83064819D02*
X122070761Y-83064819D01*
X122070761Y-83064819D02*
X122213618Y-83112438D01*
X122213618Y-83112438D02*
X122261237Y-83160057D01*
X122642190Y-83160057D02*
X122689809Y-83112438D01*
X122689809Y-83112438D02*
X122785047Y-83064819D01*
X122785047Y-83064819D02*
X123023142Y-83064819D01*
X123023142Y-83064819D02*
X123118380Y-83112438D01*
X123118380Y-83112438D02*
X123165999Y-83160057D01*
X123165999Y-83160057D02*
X123213618Y-83255295D01*
X123213618Y-83255295D02*
X123213618Y-83350533D01*
X123213618Y-83350533D02*
X123165999Y-83493390D01*
X123165999Y-83493390D02*
X122594571Y-84064819D01*
X122594571Y-84064819D02*
X123213618Y-84064819D01*
X107728095Y-61577200D02*
X107870952Y-61624819D01*
X107870952Y-61624819D02*
X108109047Y-61624819D01*
X108109047Y-61624819D02*
X108204285Y-61577200D01*
X108204285Y-61577200D02*
X108251904Y-61529580D01*
X108251904Y-61529580D02*
X108299523Y-61434342D01*
X108299523Y-61434342D02*
X108299523Y-61339104D01*
X108299523Y-61339104D02*
X108251904Y-61243866D01*
X108251904Y-61243866D02*
X108204285Y-61196247D01*
X108204285Y-61196247D02*
X108109047Y-61148628D01*
X108109047Y-61148628D02*
X107918571Y-61101009D01*
X107918571Y-61101009D02*
X107823333Y-61053390D01*
X107823333Y-61053390D02*
X107775714Y-61005771D01*
X107775714Y-61005771D02*
X107728095Y-60910533D01*
X107728095Y-60910533D02*
X107728095Y-60815295D01*
X107728095Y-60815295D02*
X107775714Y-60720057D01*
X107775714Y-60720057D02*
X107823333Y-60672438D01*
X107823333Y-60672438D02*
X107918571Y-60624819D01*
X107918571Y-60624819D02*
X108156666Y-60624819D01*
X108156666Y-60624819D02*
X108299523Y-60672438D01*
X108728095Y-61624819D02*
X108728095Y-60624819D01*
X108728095Y-60624819D02*
X109061428Y-61339104D01*
X109061428Y-61339104D02*
X109394761Y-60624819D01*
X109394761Y-60624819D02*
X109394761Y-61624819D01*
X109870952Y-61243866D02*
X110632857Y-61243866D01*
X111394761Y-60624819D02*
X111394761Y-61339104D01*
X111394761Y-61339104D02*
X111347142Y-61481961D01*
X111347142Y-61481961D02*
X111251904Y-61577200D01*
X111251904Y-61577200D02*
X111109047Y-61624819D01*
X111109047Y-61624819D02*
X111013809Y-61624819D01*
X112204285Y-61101009D02*
X111870952Y-61101009D01*
X111870952Y-61624819D02*
X111870952Y-60624819D01*
X111870952Y-60624819D02*
X112347142Y-60624819D01*
X113251904Y-61624819D02*
X112680476Y-61624819D01*
X112966190Y-61624819D02*
X112966190Y-60624819D01*
X112966190Y-60624819D02*
X112870952Y-60767676D01*
X112870952Y-60767676D02*
X112775714Y-60862914D01*
X112775714Y-60862914D02*
X112680476Y-60910533D01*
X120166000Y-89144819D02*
X120166000Y-88144819D01*
X120166000Y-88144819D02*
X120737428Y-89144819D01*
X120737428Y-89144819D02*
X120737428Y-88144819D01*
X121213619Y-89144819D02*
X121213619Y-88144819D01*
X122261237Y-89049580D02*
X122213618Y-89097200D01*
X122213618Y-89097200D02*
X122070761Y-89144819D01*
X122070761Y-89144819D02*
X121975523Y-89144819D01*
X121975523Y-89144819D02*
X121832666Y-89097200D01*
X121832666Y-89097200D02*
X121737428Y-89001961D01*
X121737428Y-89001961D02*
X121689809Y-88906723D01*
X121689809Y-88906723D02*
X121642190Y-88716247D01*
X121642190Y-88716247D02*
X121642190Y-88573390D01*
X121642190Y-88573390D02*
X121689809Y-88382914D01*
X121689809Y-88382914D02*
X121737428Y-88287676D01*
X121737428Y-88287676D02*
X121832666Y-88192438D01*
X121832666Y-88192438D02*
X121975523Y-88144819D01*
X121975523Y-88144819D02*
X122070761Y-88144819D01*
X122070761Y-88144819D02*
X122213618Y-88192438D01*
X122213618Y-88192438D02*
X122261237Y-88240057D01*
X123213618Y-89144819D02*
X122642190Y-89144819D01*
X122927904Y-89144819D02*
X122927904Y-88144819D01*
X122927904Y-88144819D02*
X122832666Y-88287676D01*
X122832666Y-88287676D02*
X122737428Y-88382914D01*
X122737428Y-88382914D02*
X122642190Y-88430533D01*
D12*
%TO.C,UID1*%
X124520000Y-69910000D02*
X123190000Y-69910000D01*
X124520000Y-68580000D02*
X124520000Y-69910000D01*
X124520000Y-67310000D02*
X124520000Y-67250000D01*
X124520000Y-67310000D02*
X121920000Y-67310000D01*
X124520000Y-67250000D02*
X119320000Y-67250000D01*
X121920000Y-69910000D02*
X119320000Y-69910000D01*
X121920000Y-67310000D02*
X121920000Y-69910000D01*
X119320000Y-69910000D02*
X119320000Y-67250000D01*
%TO.C,PWR_FAIL1*%
X124520000Y-64830000D02*
X123190000Y-64830000D01*
X124520000Y-63500000D02*
X124520000Y-64830000D01*
X124520000Y-62230000D02*
X124520000Y-62170000D01*
X124520000Y-62230000D02*
X121920000Y-62230000D01*
X124520000Y-62170000D02*
X119320000Y-62170000D01*
X121920000Y-64830000D02*
X119320000Y-64830000D01*
X121920000Y-62230000D02*
X121920000Y-64830000D01*
X119320000Y-64830000D02*
X119320000Y-62170000D01*
%TO.C,NIC2*%
X124266000Y-82610000D02*
X122936000Y-82610000D01*
X124266000Y-81280000D02*
X124266000Y-82610000D01*
X124266000Y-80010000D02*
X124266000Y-79950000D01*
X124266000Y-80010000D02*
X121666000Y-80010000D01*
X124266000Y-79950000D02*
X119066000Y-79950000D01*
X121666000Y-82610000D02*
X119066000Y-82610000D01*
X121666000Y-80010000D02*
X121666000Y-82610000D01*
X119066000Y-82610000D02*
X119066000Y-79950000D01*
%TO.C,SM-JF1*%
X107890000Y-62170000D02*
X109220000Y-62170000D01*
X107890000Y-63500000D02*
X107890000Y-62170000D01*
X107890000Y-64770000D02*
X107890000Y-87690000D01*
X107890000Y-64770000D02*
X110490000Y-64770000D01*
X107890000Y-87690000D02*
X113090000Y-87690000D01*
X110490000Y-62170000D02*
X113090000Y-62170000D01*
X110490000Y-64770000D02*
X110490000Y-62170000D01*
X113090000Y-62170000D02*
X113090000Y-87690000D01*
%TO.C,NIC1*%
X124266000Y-87690000D02*
X122936000Y-87690000D01*
X124266000Y-86360000D02*
X124266000Y-87690000D01*
X124266000Y-85090000D02*
X124266000Y-85030000D01*
X124266000Y-85090000D02*
X121666000Y-85090000D01*
X124266000Y-85030000D02*
X119066000Y-85030000D01*
X121666000Y-87690000D02*
X119066000Y-87690000D01*
X121666000Y-85090000D02*
X121666000Y-87690000D01*
X119066000Y-87690000D02*
X119066000Y-85030000D01*
%TD*%
M02*
