%TF.GenerationSoftware,KiCad,Pcbnew,7.0.9-1.fc39*%
%TF.CreationDate,2023-12-29T10:13:10-08:00*%
%TF.ProjectId,supermicro-ATX-PCB,73757065-726d-4696-9372-6f2d4154582d,rev?*%
%TF.SameCoordinates,Original*%
%TF.FileFunction,Legend,Bot*%
%TF.FilePolarity,Positive*%
%FSLAX46Y46*%
G04 Gerber Fmt 4.6, Leading zero omitted, Abs format (unit mm)*
G04 Created by KiCad (PCBNEW 7.0.9-1.fc39) date 2023-12-29 10:13:10*
%MOMM*%
%LPD*%
G01*
G04 APERTURE LIST*
%ADD10C,0.150000*%
%ADD11C,0.120000*%
G04 APERTURE END LIST*
D10*
X123403809Y-73913152D02*
X123403809Y-74770295D01*
X123403809Y-74770295D02*
X123451428Y-74865533D01*
X123451428Y-74865533D02*
X123546666Y-74913152D01*
X123546666Y-74913152D02*
X123594285Y-74913152D01*
X123403809Y-73579819D02*
X123451428Y-73627438D01*
X123451428Y-73627438D02*
X123403809Y-73675057D01*
X123403809Y-73675057D02*
X123356190Y-73627438D01*
X123356190Y-73627438D02*
X123403809Y-73579819D01*
X123403809Y-73579819D02*
X123403809Y-73675057D01*
X122784762Y-74579819D02*
X122880000Y-74532200D01*
X122880000Y-74532200D02*
X122927619Y-74484580D01*
X122927619Y-74484580D02*
X122975238Y-74389342D01*
X122975238Y-74389342D02*
X122975238Y-74103628D01*
X122975238Y-74103628D02*
X122927619Y-74008390D01*
X122927619Y-74008390D02*
X122880000Y-73960771D01*
X122880000Y-73960771D02*
X122784762Y-73913152D01*
X122784762Y-73913152D02*
X122641905Y-73913152D01*
X122641905Y-73913152D02*
X122546667Y-73960771D01*
X122546667Y-73960771D02*
X122499048Y-74008390D01*
X122499048Y-74008390D02*
X122451429Y-74103628D01*
X122451429Y-74103628D02*
X122451429Y-74389342D01*
X122451429Y-74389342D02*
X122499048Y-74484580D01*
X122499048Y-74484580D02*
X122546667Y-74532200D01*
X122546667Y-74532200D02*
X122641905Y-74579819D01*
X122641905Y-74579819D02*
X122784762Y-74579819D01*
X121594286Y-74579819D02*
X121594286Y-74056009D01*
X121594286Y-74056009D02*
X121641905Y-73960771D01*
X121641905Y-73960771D02*
X121737143Y-73913152D01*
X121737143Y-73913152D02*
X121927619Y-73913152D01*
X121927619Y-73913152D02*
X122022857Y-73960771D01*
X121594286Y-74532200D02*
X121689524Y-74579819D01*
X121689524Y-74579819D02*
X121927619Y-74579819D01*
X121927619Y-74579819D02*
X122022857Y-74532200D01*
X122022857Y-74532200D02*
X122070476Y-74436961D01*
X122070476Y-74436961D02*
X122070476Y-74341723D01*
X122070476Y-74341723D02*
X122022857Y-74246485D01*
X122022857Y-74246485D02*
X121927619Y-74198866D01*
X121927619Y-74198866D02*
X121689524Y-74198866D01*
X121689524Y-74198866D02*
X121594286Y-74151247D01*
X121118095Y-73913152D02*
X121118095Y-74579819D01*
X121118095Y-74008390D02*
X121070476Y-73960771D01*
X121070476Y-73960771D02*
X120975238Y-73913152D01*
X120975238Y-73913152D02*
X120832381Y-73913152D01*
X120832381Y-73913152D02*
X120737143Y-73960771D01*
X120737143Y-73960771D02*
X120689524Y-74056009D01*
X120689524Y-74056009D02*
X120689524Y-74579819D01*
X120213333Y-73913152D02*
X120213333Y-74579819D01*
X120213333Y-74008390D02*
X120165714Y-73960771D01*
X120165714Y-73960771D02*
X120070476Y-73913152D01*
X120070476Y-73913152D02*
X119927619Y-73913152D01*
X119927619Y-73913152D02*
X119832381Y-73960771D01*
X119832381Y-73960771D02*
X119784762Y-74056009D01*
X119784762Y-74056009D02*
X119784762Y-74579819D01*
X118927619Y-74532200D02*
X119022857Y-74579819D01*
X119022857Y-74579819D02*
X119213333Y-74579819D01*
X119213333Y-74579819D02*
X119308571Y-74532200D01*
X119308571Y-74532200D02*
X119356190Y-74436961D01*
X119356190Y-74436961D02*
X119356190Y-74056009D01*
X119356190Y-74056009D02*
X119308571Y-73960771D01*
X119308571Y-73960771D02*
X119213333Y-73913152D01*
X119213333Y-73913152D02*
X119022857Y-73913152D01*
X119022857Y-73913152D02*
X118927619Y-73960771D01*
X118927619Y-73960771D02*
X118880000Y-74056009D01*
X118880000Y-74056009D02*
X118880000Y-74151247D01*
X118880000Y-74151247D02*
X119356190Y-74246485D01*
X118451428Y-74198866D02*
X117689524Y-74198866D01*
X117070476Y-74579819D02*
X117165714Y-74532200D01*
X117165714Y-74532200D02*
X117213333Y-74436961D01*
X117213333Y-74436961D02*
X117213333Y-73579819D01*
X116260952Y-74579819D02*
X116260952Y-74056009D01*
X116260952Y-74056009D02*
X116308571Y-73960771D01*
X116308571Y-73960771D02*
X116403809Y-73913152D01*
X116403809Y-73913152D02*
X116594285Y-73913152D01*
X116594285Y-73913152D02*
X116689523Y-73960771D01*
X116260952Y-74532200D02*
X116356190Y-74579819D01*
X116356190Y-74579819D02*
X116594285Y-74579819D01*
X116594285Y-74579819D02*
X116689523Y-74532200D01*
X116689523Y-74532200D02*
X116737142Y-74436961D01*
X116737142Y-74436961D02*
X116737142Y-74341723D01*
X116737142Y-74341723D02*
X116689523Y-74246485D01*
X116689523Y-74246485D02*
X116594285Y-74198866D01*
X116594285Y-74198866D02*
X116356190Y-74198866D01*
X116356190Y-74198866D02*
X116260952Y-74151247D01*
X115784761Y-74579819D02*
X115784761Y-73579819D01*
X115784761Y-73960771D02*
X115689523Y-73913152D01*
X115689523Y-73913152D02*
X115499047Y-73913152D01*
X115499047Y-73913152D02*
X115403809Y-73960771D01*
X115403809Y-73960771D02*
X115356190Y-74008390D01*
X115356190Y-74008390D02*
X115308571Y-74103628D01*
X115308571Y-74103628D02*
X115308571Y-74389342D01*
X115308571Y-74389342D02*
X115356190Y-74484580D01*
X115356190Y-74484580D02*
X115403809Y-74532200D01*
X115403809Y-74532200D02*
X115499047Y-74579819D01*
X115499047Y-74579819D02*
X115689523Y-74579819D01*
X115689523Y-74579819D02*
X115784761Y-74532200D01*
X120641904Y-76189819D02*
X120641904Y-75523152D01*
X120641904Y-75713628D02*
X120594285Y-75618390D01*
X120594285Y-75618390D02*
X120546666Y-75570771D01*
X120546666Y-75570771D02*
X120451428Y-75523152D01*
X120451428Y-75523152D02*
X120356190Y-75523152D01*
X119499047Y-76189819D02*
X120070475Y-76189819D01*
X119784761Y-76189819D02*
X119784761Y-75189819D01*
X119784761Y-75189819D02*
X119879999Y-75332676D01*
X119879999Y-75332676D02*
X119975237Y-75427914D01*
X119975237Y-75427914D02*
X120070475Y-75475533D01*
X119070475Y-76094580D02*
X119022856Y-76142200D01*
X119022856Y-76142200D02*
X119070475Y-76189819D01*
X119070475Y-76189819D02*
X119118094Y-76142200D01*
X119118094Y-76142200D02*
X119070475Y-76094580D01*
X119070475Y-76094580D02*
X119070475Y-76189819D01*
X118070476Y-76189819D02*
X118641904Y-76189819D01*
X118356190Y-76189819D02*
X118356190Y-75189819D01*
X118356190Y-75189819D02*
X118451428Y-75332676D01*
X118451428Y-75332676D02*
X118546666Y-75427914D01*
X118546666Y-75427914D02*
X118641904Y-75475533D01*
X105989047Y-81679104D02*
X105512857Y-81679104D01*
X106084285Y-81964819D02*
X105750952Y-80964819D01*
X105750952Y-80964819D02*
X105417619Y-81964819D01*
X105227142Y-80964819D02*
X104655714Y-80964819D01*
X104941428Y-81964819D02*
X104941428Y-80964819D01*
X104417618Y-80964819D02*
X103750952Y-81964819D01*
X103750952Y-80964819D02*
X104417618Y-81964819D01*
X103369999Y-81583866D02*
X102608095Y-81583866D01*
X101798571Y-81441009D02*
X102131904Y-81441009D01*
X102131904Y-81964819D02*
X102131904Y-80964819D01*
X102131904Y-80964819D02*
X101655714Y-80964819D01*
X101274761Y-81964819D02*
X101274761Y-80964819D01*
X101274761Y-80964819D02*
X100893809Y-80964819D01*
X100893809Y-80964819D02*
X100798571Y-81012438D01*
X100798571Y-81012438D02*
X100750952Y-81060057D01*
X100750952Y-81060057D02*
X100703333Y-81155295D01*
X100703333Y-81155295D02*
X100703333Y-81298152D01*
X100703333Y-81298152D02*
X100750952Y-81393390D01*
X100750952Y-81393390D02*
X100798571Y-81441009D01*
X100798571Y-81441009D02*
X100893809Y-81488628D01*
X100893809Y-81488628D02*
X101274761Y-81488628D01*
X99750952Y-81964819D02*
X100322380Y-81964819D01*
X100036666Y-81964819D02*
X100036666Y-80964819D01*
X100036666Y-80964819D02*
X100131904Y-81107676D01*
X100131904Y-81107676D02*
X100227142Y-81202914D01*
X100227142Y-81202914D02*
X100322380Y-81250533D01*
D11*
%TO.C,ATX-FP1*%
X100270000Y-67250000D02*
X105470000Y-67250000D01*
X100270000Y-80070000D02*
X100270000Y-67250000D01*
X100270000Y-80070000D02*
X102870000Y-80070000D01*
X102870000Y-77470000D02*
X105470000Y-77470000D01*
X102870000Y-80070000D02*
X102870000Y-77470000D01*
X104140000Y-80070000D02*
X105470000Y-80070000D01*
X105470000Y-77470000D02*
X105470000Y-67250000D01*
X105470000Y-80070000D02*
X105470000Y-78740000D01*
%TD*%
M02*
