%TF.GenerationSoftware,KiCad,Pcbnew,7.0.9-1.fc39*%
%TF.CreationDate,2023-12-29T10:13:13-08:00*%
%TF.ProjectId,supermicro-ATX-PCB,73757065-726d-4696-9372-6f2d4154582d,rev?*%
%TF.SameCoordinates,Original*%
%TF.FileFunction,Drillmap*%
%TF.FilePolarity,Positive*%
%FSLAX45Y45*%
G04 Gerber Fmt 4.5, Leading zero omitted, Abs format (unit mm)*
G04 Created by KiCad (PCBNEW 7.0.9-1.fc39) date 2023-12-29 10:13:13*
%MOMM*%
%LPD*%
G01*
G04 APERTURE LIST*
%ADD10C,0.100000*%
%ADD11C,0.200000*%
G04 APERTURE END LIST*
D10*
X10096500Y-8255000D02*
X10287000Y-8255000D01*
X12319000Y-9017000D02*
G75*
G03*
X12573000Y-8763000I0J254000D01*
G01*
X12319000Y-5969000D02*
X10795000Y-5969000D01*
X10096500Y-6477000D02*
X10287000Y-6477000D01*
X10541000Y-8509000D02*
X10541000Y-8763000D01*
X10541000Y-8763000D02*
G75*
G03*
X10795000Y-9017000I254000J0D01*
G01*
X9831377Y-8001000D02*
G75*
G03*
X10096500Y-8255000I254233J0D01*
G01*
X9831605Y-8001000D02*
X9831605Y-6731000D01*
X10795000Y-5969000D02*
G75*
G03*
X10541000Y-6223000I0J-254000D01*
G01*
X12573000Y-6223000D02*
X12573000Y-8763000D01*
X10287000Y-6477000D02*
G75*
G03*
X10541000Y-6223000I0J254000D01*
G01*
X10541000Y-8509000D02*
G75*
G03*
X10287000Y-8255000I-254000J0D01*
G01*
X12319000Y-9017000D02*
X10795000Y-9017000D01*
X12573000Y-6223000D02*
G75*
G03*
X12319000Y-5969000I-254000J0D01*
G01*
X10096500Y-6477005D02*
G75*
G03*
X9831372Y-6731000I-10900J-253995D01*
G01*
D11*
D10*
X10110000Y-6808000D02*
X10210000Y-6908000D01*
X10210000Y-6808000D02*
X10110000Y-6908000D01*
X10110000Y-7062000D02*
X10210000Y-7162000D01*
X10210000Y-7062000D02*
X10110000Y-7162000D01*
X10110000Y-7316000D02*
X10210000Y-7416000D01*
X10210000Y-7316000D02*
X10110000Y-7416000D01*
X10110000Y-7570000D02*
X10210000Y-7670000D01*
X10210000Y-7570000D02*
X10110000Y-7670000D01*
X10110000Y-7824000D02*
X10210000Y-7924000D01*
X10210000Y-7824000D02*
X10110000Y-7924000D01*
X10364000Y-6808000D02*
X10464000Y-6908000D01*
X10464000Y-6808000D02*
X10364000Y-6908000D01*
X10364000Y-7062000D02*
X10464000Y-7162000D01*
X10464000Y-7062000D02*
X10364000Y-7162000D01*
X10364000Y-7316000D02*
X10464000Y-7416000D01*
X10464000Y-7316000D02*
X10364000Y-7416000D01*
X10364000Y-7570000D02*
X10464000Y-7670000D01*
X10464000Y-7570000D02*
X10364000Y-7670000D01*
X10364000Y-7824000D02*
X10464000Y-7924000D01*
X10464000Y-7824000D02*
X10364000Y-7924000D01*
X10872000Y-6300000D02*
X10972000Y-6400000D01*
X10972000Y-6300000D02*
X10872000Y-6400000D01*
X10872000Y-6554000D02*
X10972000Y-6654000D01*
X10972000Y-6554000D02*
X10872000Y-6654000D01*
X10872000Y-6808000D02*
X10972000Y-6908000D01*
X10972000Y-6808000D02*
X10872000Y-6908000D01*
X10872000Y-7062000D02*
X10972000Y-7162000D01*
X10972000Y-7062000D02*
X10872000Y-7162000D01*
X10872000Y-7316000D02*
X10972000Y-7416000D01*
X10972000Y-7316000D02*
X10872000Y-7416000D01*
X10872000Y-7570000D02*
X10972000Y-7670000D01*
X10972000Y-7570000D02*
X10872000Y-7670000D01*
X10872000Y-7824000D02*
X10972000Y-7924000D01*
X10972000Y-7824000D02*
X10872000Y-7924000D01*
X10872000Y-8078000D02*
X10972000Y-8178000D01*
X10972000Y-8078000D02*
X10872000Y-8178000D01*
X10872000Y-8332000D02*
X10972000Y-8432000D01*
X10972000Y-8332000D02*
X10872000Y-8432000D01*
X10872000Y-8586000D02*
X10972000Y-8686000D01*
X10972000Y-8586000D02*
X10872000Y-8686000D01*
X11126000Y-6300000D02*
X11226000Y-6400000D01*
X11226000Y-6300000D02*
X11126000Y-6400000D01*
X11126000Y-6554000D02*
X11226000Y-6654000D01*
X11226000Y-6554000D02*
X11126000Y-6654000D01*
X11126000Y-6808000D02*
X11226000Y-6908000D01*
X11226000Y-6808000D02*
X11126000Y-6908000D01*
X11126000Y-7062000D02*
X11226000Y-7162000D01*
X11226000Y-7062000D02*
X11126000Y-7162000D01*
X11126000Y-7316000D02*
X11226000Y-7416000D01*
X11226000Y-7316000D02*
X11126000Y-7416000D01*
X11126000Y-7570000D02*
X11226000Y-7670000D01*
X11226000Y-7570000D02*
X11126000Y-7670000D01*
X11126000Y-7824000D02*
X11226000Y-7924000D01*
X11226000Y-7824000D02*
X11126000Y-7924000D01*
X11126000Y-8078000D02*
X11226000Y-8178000D01*
X11226000Y-8078000D02*
X11126000Y-8178000D01*
X11126000Y-8332000D02*
X11226000Y-8432000D01*
X11226000Y-8332000D02*
X11126000Y-8432000D01*
X11126000Y-8586000D02*
X11226000Y-8686000D01*
X11226000Y-8586000D02*
X11126000Y-8686000D01*
X11989600Y-8078000D02*
X12089600Y-8178000D01*
X12089600Y-8078000D02*
X11989600Y-8178000D01*
X11989600Y-8586000D02*
X12089600Y-8686000D01*
X12089600Y-8586000D02*
X11989600Y-8686000D01*
X12015000Y-6300000D02*
X12115000Y-6400000D01*
X12115000Y-6300000D02*
X12015000Y-6400000D01*
X12015000Y-6808000D02*
X12115000Y-6908000D01*
X12115000Y-6808000D02*
X12015000Y-6908000D01*
X12243600Y-8078000D02*
X12343600Y-8178000D01*
X12343600Y-8078000D02*
X12243600Y-8178000D01*
X12243600Y-8586000D02*
X12343600Y-8686000D01*
X12343600Y-8586000D02*
X12243600Y-8686000D01*
X12269000Y-6300000D02*
X12369000Y-6400000D01*
X12369000Y-6300000D02*
X12269000Y-6400000D01*
X12269000Y-6808000D02*
X12369000Y-6908000D01*
X12369000Y-6808000D02*
X12269000Y-6908000D01*
D11*
X10087148Y-9333484D02*
X10087148Y-9133484D01*
X10087148Y-9133484D02*
X10134767Y-9133484D01*
X10134767Y-9133484D02*
X10163339Y-9143008D01*
X10163339Y-9143008D02*
X10182387Y-9162055D01*
X10182387Y-9162055D02*
X10191910Y-9181103D01*
X10191910Y-9181103D02*
X10201434Y-9219198D01*
X10201434Y-9219198D02*
X10201434Y-9247770D01*
X10201434Y-9247770D02*
X10191910Y-9285865D01*
X10191910Y-9285865D02*
X10182387Y-9304912D01*
X10182387Y-9304912D02*
X10163339Y-9323960D01*
X10163339Y-9323960D02*
X10134767Y-9333484D01*
X10134767Y-9333484D02*
X10087148Y-9333484D01*
X10287148Y-9333484D02*
X10287148Y-9200150D01*
X10287148Y-9238246D02*
X10296672Y-9219198D01*
X10296672Y-9219198D02*
X10306196Y-9209674D01*
X10306196Y-9209674D02*
X10325244Y-9200150D01*
X10325244Y-9200150D02*
X10344291Y-9200150D01*
X10410958Y-9333484D02*
X10410958Y-9200150D01*
X10410958Y-9133484D02*
X10401434Y-9143008D01*
X10401434Y-9143008D02*
X10410958Y-9152531D01*
X10410958Y-9152531D02*
X10420482Y-9143008D01*
X10420482Y-9143008D02*
X10410958Y-9133484D01*
X10410958Y-9133484D02*
X10410958Y-9152531D01*
X10534767Y-9333484D02*
X10515720Y-9323960D01*
X10515720Y-9323960D02*
X10506196Y-9304912D01*
X10506196Y-9304912D02*
X10506196Y-9133484D01*
X10639529Y-9333484D02*
X10620482Y-9323960D01*
X10620482Y-9323960D02*
X10610958Y-9304912D01*
X10610958Y-9304912D02*
X10610958Y-9133484D01*
X10868101Y-9333484D02*
X10868101Y-9133484D01*
X10868101Y-9133484D02*
X10934768Y-9276341D01*
X10934768Y-9276341D02*
X11001434Y-9133484D01*
X11001434Y-9133484D02*
X11001434Y-9333484D01*
X11182387Y-9333484D02*
X11182387Y-9228722D01*
X11182387Y-9228722D02*
X11172863Y-9209674D01*
X11172863Y-9209674D02*
X11153815Y-9200150D01*
X11153815Y-9200150D02*
X11115720Y-9200150D01*
X11115720Y-9200150D02*
X11096672Y-9209674D01*
X11182387Y-9323960D02*
X11163339Y-9333484D01*
X11163339Y-9333484D02*
X11115720Y-9333484D01*
X11115720Y-9333484D02*
X11096672Y-9323960D01*
X11096672Y-9323960D02*
X11087148Y-9304912D01*
X11087148Y-9304912D02*
X11087148Y-9285865D01*
X11087148Y-9285865D02*
X11096672Y-9266817D01*
X11096672Y-9266817D02*
X11115720Y-9257293D01*
X11115720Y-9257293D02*
X11163339Y-9257293D01*
X11163339Y-9257293D02*
X11182387Y-9247770D01*
X11277625Y-9200150D02*
X11277625Y-9400150D01*
X11277625Y-9209674D02*
X11296672Y-9200150D01*
X11296672Y-9200150D02*
X11334767Y-9200150D01*
X11334767Y-9200150D02*
X11353815Y-9209674D01*
X11353815Y-9209674D02*
X11363339Y-9219198D01*
X11363339Y-9219198D02*
X11372863Y-9238246D01*
X11372863Y-9238246D02*
X11372863Y-9295389D01*
X11372863Y-9295389D02*
X11363339Y-9314436D01*
X11363339Y-9314436D02*
X11353815Y-9323960D01*
X11353815Y-9323960D02*
X11334767Y-9333484D01*
X11334767Y-9333484D02*
X11296672Y-9333484D01*
X11296672Y-9333484D02*
X11277625Y-9323960D01*
X11458577Y-9314436D02*
X11468101Y-9323960D01*
X11468101Y-9323960D02*
X11458577Y-9333484D01*
X11458577Y-9333484D02*
X11449053Y-9323960D01*
X11449053Y-9323960D02*
X11458577Y-9314436D01*
X11458577Y-9314436D02*
X11458577Y-9333484D01*
X11458577Y-9209674D02*
X11468101Y-9219198D01*
X11468101Y-9219198D02*
X11458577Y-9228722D01*
X11458577Y-9228722D02*
X11449053Y-9219198D01*
X11449053Y-9219198D02*
X11458577Y-9209674D01*
X11458577Y-9209674D02*
X11458577Y-9228722D01*
D10*
X9726372Y-9612000D02*
X9826372Y-9712000D01*
X9826372Y-9612000D02*
X9726372Y-9712000D01*
D11*
X10191910Y-9753484D02*
X10077625Y-9753484D01*
X10134767Y-9753484D02*
X10134767Y-9553484D01*
X10134767Y-9553484D02*
X10115720Y-9582055D01*
X10115720Y-9582055D02*
X10096672Y-9601103D01*
X10096672Y-9601103D02*
X10077625Y-9610627D01*
X10277625Y-9734436D02*
X10287148Y-9743960D01*
X10287148Y-9743960D02*
X10277625Y-9753484D01*
X10277625Y-9753484D02*
X10268101Y-9743960D01*
X10268101Y-9743960D02*
X10277625Y-9734436D01*
X10277625Y-9734436D02*
X10277625Y-9753484D01*
X10410958Y-9553484D02*
X10430006Y-9553484D01*
X10430006Y-9553484D02*
X10449053Y-9563008D01*
X10449053Y-9563008D02*
X10458577Y-9572531D01*
X10458577Y-9572531D02*
X10468101Y-9591579D01*
X10468101Y-9591579D02*
X10477625Y-9629674D01*
X10477625Y-9629674D02*
X10477625Y-9677293D01*
X10477625Y-9677293D02*
X10468101Y-9715389D01*
X10468101Y-9715389D02*
X10458577Y-9734436D01*
X10458577Y-9734436D02*
X10449053Y-9743960D01*
X10449053Y-9743960D02*
X10430006Y-9753484D01*
X10430006Y-9753484D02*
X10410958Y-9753484D01*
X10410958Y-9753484D02*
X10391910Y-9743960D01*
X10391910Y-9743960D02*
X10382387Y-9734436D01*
X10382387Y-9734436D02*
X10372863Y-9715389D01*
X10372863Y-9715389D02*
X10363339Y-9677293D01*
X10363339Y-9677293D02*
X10363339Y-9629674D01*
X10363339Y-9629674D02*
X10372863Y-9591579D01*
X10372863Y-9591579D02*
X10382387Y-9572531D01*
X10382387Y-9572531D02*
X10391910Y-9563008D01*
X10391910Y-9563008D02*
X10410958Y-9553484D01*
X10601434Y-9553484D02*
X10620482Y-9553484D01*
X10620482Y-9553484D02*
X10639529Y-9563008D01*
X10639529Y-9563008D02*
X10649053Y-9572531D01*
X10649053Y-9572531D02*
X10658577Y-9591579D01*
X10658577Y-9591579D02*
X10668101Y-9629674D01*
X10668101Y-9629674D02*
X10668101Y-9677293D01*
X10668101Y-9677293D02*
X10658577Y-9715389D01*
X10658577Y-9715389D02*
X10649053Y-9734436D01*
X10649053Y-9734436D02*
X10639529Y-9743960D01*
X10639529Y-9743960D02*
X10620482Y-9753484D01*
X10620482Y-9753484D02*
X10601434Y-9753484D01*
X10601434Y-9753484D02*
X10582387Y-9743960D01*
X10582387Y-9743960D02*
X10572863Y-9734436D01*
X10572863Y-9734436D02*
X10563339Y-9715389D01*
X10563339Y-9715389D02*
X10553815Y-9677293D01*
X10553815Y-9677293D02*
X10553815Y-9629674D01*
X10553815Y-9629674D02*
X10563339Y-9591579D01*
X10563339Y-9591579D02*
X10572863Y-9572531D01*
X10572863Y-9572531D02*
X10582387Y-9563008D01*
X10582387Y-9563008D02*
X10601434Y-9553484D01*
X10791910Y-9553484D02*
X10810958Y-9553484D01*
X10810958Y-9553484D02*
X10830006Y-9563008D01*
X10830006Y-9563008D02*
X10839529Y-9572531D01*
X10839529Y-9572531D02*
X10849053Y-9591579D01*
X10849053Y-9591579D02*
X10858577Y-9629674D01*
X10858577Y-9629674D02*
X10858577Y-9677293D01*
X10858577Y-9677293D02*
X10849053Y-9715389D01*
X10849053Y-9715389D02*
X10839529Y-9734436D01*
X10839529Y-9734436D02*
X10830006Y-9743960D01*
X10830006Y-9743960D02*
X10810958Y-9753484D01*
X10810958Y-9753484D02*
X10791910Y-9753484D01*
X10791910Y-9753484D02*
X10772863Y-9743960D01*
X10772863Y-9743960D02*
X10763339Y-9734436D01*
X10763339Y-9734436D02*
X10753815Y-9715389D01*
X10753815Y-9715389D02*
X10744291Y-9677293D01*
X10744291Y-9677293D02*
X10744291Y-9629674D01*
X10744291Y-9629674D02*
X10753815Y-9591579D01*
X10753815Y-9591579D02*
X10763339Y-9572531D01*
X10763339Y-9572531D02*
X10772863Y-9563008D01*
X10772863Y-9563008D02*
X10791910Y-9553484D01*
X10944291Y-9753484D02*
X10944291Y-9620150D01*
X10944291Y-9639198D02*
X10953815Y-9629674D01*
X10953815Y-9629674D02*
X10972863Y-9620150D01*
X10972863Y-9620150D02*
X11001434Y-9620150D01*
X11001434Y-9620150D02*
X11020482Y-9629674D01*
X11020482Y-9629674D02*
X11030006Y-9648722D01*
X11030006Y-9648722D02*
X11030006Y-9753484D01*
X11030006Y-9648722D02*
X11039529Y-9629674D01*
X11039529Y-9629674D02*
X11058577Y-9620150D01*
X11058577Y-9620150D02*
X11087148Y-9620150D01*
X11087148Y-9620150D02*
X11106196Y-9629674D01*
X11106196Y-9629674D02*
X11115720Y-9648722D01*
X11115720Y-9648722D02*
X11115720Y-9753484D01*
X11210958Y-9753484D02*
X11210958Y-9620150D01*
X11210958Y-9639198D02*
X11220482Y-9629674D01*
X11220482Y-9629674D02*
X11239529Y-9620150D01*
X11239529Y-9620150D02*
X11268101Y-9620150D01*
X11268101Y-9620150D02*
X11287148Y-9629674D01*
X11287148Y-9629674D02*
X11296672Y-9648722D01*
X11296672Y-9648722D02*
X11296672Y-9753484D01*
X11296672Y-9648722D02*
X11306196Y-9629674D01*
X11306196Y-9629674D02*
X11325244Y-9620150D01*
X11325244Y-9620150D02*
X11353815Y-9620150D01*
X11353815Y-9620150D02*
X11372863Y-9629674D01*
X11372863Y-9629674D02*
X11382387Y-9648722D01*
X11382387Y-9648722D02*
X11382387Y-9753484D01*
X11772863Y-9543960D02*
X11601434Y-9801103D01*
X12030006Y-9553484D02*
X12049053Y-9553484D01*
X12049053Y-9553484D02*
X12068101Y-9563008D01*
X12068101Y-9563008D02*
X12077625Y-9572531D01*
X12077625Y-9572531D02*
X12087149Y-9591579D01*
X12087149Y-9591579D02*
X12096672Y-9629674D01*
X12096672Y-9629674D02*
X12096672Y-9677293D01*
X12096672Y-9677293D02*
X12087149Y-9715389D01*
X12087149Y-9715389D02*
X12077625Y-9734436D01*
X12077625Y-9734436D02*
X12068101Y-9743960D01*
X12068101Y-9743960D02*
X12049053Y-9753484D01*
X12049053Y-9753484D02*
X12030006Y-9753484D01*
X12030006Y-9753484D02*
X12010958Y-9743960D01*
X12010958Y-9743960D02*
X12001434Y-9734436D01*
X12001434Y-9734436D02*
X11991910Y-9715389D01*
X11991910Y-9715389D02*
X11982387Y-9677293D01*
X11982387Y-9677293D02*
X11982387Y-9629674D01*
X11982387Y-9629674D02*
X11991910Y-9591579D01*
X11991910Y-9591579D02*
X12001434Y-9572531D01*
X12001434Y-9572531D02*
X12010958Y-9563008D01*
X12010958Y-9563008D02*
X12030006Y-9553484D01*
X12182387Y-9734436D02*
X12191910Y-9743960D01*
X12191910Y-9743960D02*
X12182387Y-9753484D01*
X12182387Y-9753484D02*
X12172863Y-9743960D01*
X12172863Y-9743960D02*
X12182387Y-9734436D01*
X12182387Y-9734436D02*
X12182387Y-9753484D01*
X12315720Y-9553484D02*
X12334768Y-9553484D01*
X12334768Y-9553484D02*
X12353815Y-9563008D01*
X12353815Y-9563008D02*
X12363339Y-9572531D01*
X12363339Y-9572531D02*
X12372863Y-9591579D01*
X12372863Y-9591579D02*
X12382387Y-9629674D01*
X12382387Y-9629674D02*
X12382387Y-9677293D01*
X12382387Y-9677293D02*
X12372863Y-9715389D01*
X12372863Y-9715389D02*
X12363339Y-9734436D01*
X12363339Y-9734436D02*
X12353815Y-9743960D01*
X12353815Y-9743960D02*
X12334768Y-9753484D01*
X12334768Y-9753484D02*
X12315720Y-9753484D01*
X12315720Y-9753484D02*
X12296672Y-9743960D01*
X12296672Y-9743960D02*
X12287149Y-9734436D01*
X12287149Y-9734436D02*
X12277625Y-9715389D01*
X12277625Y-9715389D02*
X12268101Y-9677293D01*
X12268101Y-9677293D02*
X12268101Y-9629674D01*
X12268101Y-9629674D02*
X12277625Y-9591579D01*
X12277625Y-9591579D02*
X12287149Y-9572531D01*
X12287149Y-9572531D02*
X12296672Y-9563008D01*
X12296672Y-9563008D02*
X12315720Y-9553484D01*
X12449053Y-9553484D02*
X12572863Y-9553484D01*
X12572863Y-9553484D02*
X12506196Y-9629674D01*
X12506196Y-9629674D02*
X12534768Y-9629674D01*
X12534768Y-9629674D02*
X12553815Y-9639198D01*
X12553815Y-9639198D02*
X12563339Y-9648722D01*
X12563339Y-9648722D02*
X12572863Y-9667770D01*
X12572863Y-9667770D02*
X12572863Y-9715389D01*
X12572863Y-9715389D02*
X12563339Y-9734436D01*
X12563339Y-9734436D02*
X12553815Y-9743960D01*
X12553815Y-9743960D02*
X12534768Y-9753484D01*
X12534768Y-9753484D02*
X12477625Y-9753484D01*
X12477625Y-9753484D02*
X12458577Y-9743960D01*
X12458577Y-9743960D02*
X12449053Y-9734436D01*
X12668101Y-9753484D02*
X12706196Y-9753484D01*
X12706196Y-9753484D02*
X12725244Y-9743960D01*
X12725244Y-9743960D02*
X12734768Y-9734436D01*
X12734768Y-9734436D02*
X12753815Y-9705865D01*
X12753815Y-9705865D02*
X12763339Y-9667770D01*
X12763339Y-9667770D02*
X12763339Y-9591579D01*
X12763339Y-9591579D02*
X12753815Y-9572531D01*
X12753815Y-9572531D02*
X12744291Y-9563008D01*
X12744291Y-9563008D02*
X12725244Y-9553484D01*
X12725244Y-9553484D02*
X12687149Y-9553484D01*
X12687149Y-9553484D02*
X12668101Y-9563008D01*
X12668101Y-9563008D02*
X12658577Y-9572531D01*
X12658577Y-9572531D02*
X12649053Y-9591579D01*
X12649053Y-9591579D02*
X12649053Y-9639198D01*
X12649053Y-9639198D02*
X12658577Y-9658246D01*
X12658577Y-9658246D02*
X12668101Y-9667770D01*
X12668101Y-9667770D02*
X12687149Y-9677293D01*
X12687149Y-9677293D02*
X12725244Y-9677293D01*
X12725244Y-9677293D02*
X12744291Y-9667770D01*
X12744291Y-9667770D02*
X12753815Y-9658246D01*
X12753815Y-9658246D02*
X12763339Y-9639198D01*
X12934768Y-9620150D02*
X12934768Y-9753484D01*
X12887149Y-9543960D02*
X12839530Y-9686817D01*
X12839530Y-9686817D02*
X12963339Y-9686817D01*
X13030006Y-9553484D02*
X13030006Y-9591579D01*
X13106196Y-9553484D02*
X13106196Y-9591579D01*
X13401434Y-9829674D02*
X13391911Y-9820150D01*
X13391911Y-9820150D02*
X13372863Y-9791579D01*
X13372863Y-9791579D02*
X13363339Y-9772531D01*
X13363339Y-9772531D02*
X13353815Y-9743960D01*
X13353815Y-9743960D02*
X13344292Y-9696341D01*
X13344292Y-9696341D02*
X13344292Y-9658246D01*
X13344292Y-9658246D02*
X13353815Y-9610627D01*
X13353815Y-9610627D02*
X13363339Y-9582055D01*
X13363339Y-9582055D02*
X13372863Y-9563008D01*
X13372863Y-9563008D02*
X13391911Y-9534436D01*
X13391911Y-9534436D02*
X13401434Y-9524912D01*
X13458577Y-9553484D02*
X13582387Y-9553484D01*
X13582387Y-9553484D02*
X13515720Y-9629674D01*
X13515720Y-9629674D02*
X13544292Y-9629674D01*
X13544292Y-9629674D02*
X13563339Y-9639198D01*
X13563339Y-9639198D02*
X13572863Y-9648722D01*
X13572863Y-9648722D02*
X13582387Y-9667770D01*
X13582387Y-9667770D02*
X13582387Y-9715389D01*
X13582387Y-9715389D02*
X13572863Y-9734436D01*
X13572863Y-9734436D02*
X13563339Y-9743960D01*
X13563339Y-9743960D02*
X13544292Y-9753484D01*
X13544292Y-9753484D02*
X13487149Y-9753484D01*
X13487149Y-9753484D02*
X13468101Y-9743960D01*
X13468101Y-9743960D02*
X13458577Y-9734436D01*
X13696672Y-9639198D02*
X13677625Y-9629674D01*
X13677625Y-9629674D02*
X13668101Y-9620150D01*
X13668101Y-9620150D02*
X13658577Y-9601103D01*
X13658577Y-9601103D02*
X13658577Y-9591579D01*
X13658577Y-9591579D02*
X13668101Y-9572531D01*
X13668101Y-9572531D02*
X13677625Y-9563008D01*
X13677625Y-9563008D02*
X13696672Y-9553484D01*
X13696672Y-9553484D02*
X13734768Y-9553484D01*
X13734768Y-9553484D02*
X13753815Y-9563008D01*
X13753815Y-9563008D02*
X13763339Y-9572531D01*
X13763339Y-9572531D02*
X13772863Y-9591579D01*
X13772863Y-9591579D02*
X13772863Y-9601103D01*
X13772863Y-9601103D02*
X13763339Y-9620150D01*
X13763339Y-9620150D02*
X13753815Y-9629674D01*
X13753815Y-9629674D02*
X13734768Y-9639198D01*
X13734768Y-9639198D02*
X13696672Y-9639198D01*
X13696672Y-9639198D02*
X13677625Y-9648722D01*
X13677625Y-9648722D02*
X13668101Y-9658246D01*
X13668101Y-9658246D02*
X13658577Y-9677293D01*
X13658577Y-9677293D02*
X13658577Y-9715389D01*
X13658577Y-9715389D02*
X13668101Y-9734436D01*
X13668101Y-9734436D02*
X13677625Y-9743960D01*
X13677625Y-9743960D02*
X13696672Y-9753484D01*
X13696672Y-9753484D02*
X13734768Y-9753484D01*
X13734768Y-9753484D02*
X13753815Y-9743960D01*
X13753815Y-9743960D02*
X13763339Y-9734436D01*
X13763339Y-9734436D02*
X13772863Y-9715389D01*
X13772863Y-9715389D02*
X13772863Y-9677293D01*
X13772863Y-9677293D02*
X13763339Y-9658246D01*
X13763339Y-9658246D02*
X13753815Y-9648722D01*
X13753815Y-9648722D02*
X13734768Y-9639198D01*
X14010958Y-9753484D02*
X14010958Y-9553484D01*
X14096673Y-9753484D02*
X14096673Y-9648722D01*
X14096673Y-9648722D02*
X14087149Y-9629674D01*
X14087149Y-9629674D02*
X14068101Y-9620150D01*
X14068101Y-9620150D02*
X14039530Y-9620150D01*
X14039530Y-9620150D02*
X14020482Y-9629674D01*
X14020482Y-9629674D02*
X14010958Y-9639198D01*
X14220482Y-9753484D02*
X14201434Y-9743960D01*
X14201434Y-9743960D02*
X14191911Y-9734436D01*
X14191911Y-9734436D02*
X14182387Y-9715389D01*
X14182387Y-9715389D02*
X14182387Y-9658246D01*
X14182387Y-9658246D02*
X14191911Y-9639198D01*
X14191911Y-9639198D02*
X14201434Y-9629674D01*
X14201434Y-9629674D02*
X14220482Y-9620150D01*
X14220482Y-9620150D02*
X14249054Y-9620150D01*
X14249054Y-9620150D02*
X14268101Y-9629674D01*
X14268101Y-9629674D02*
X14277625Y-9639198D01*
X14277625Y-9639198D02*
X14287149Y-9658246D01*
X14287149Y-9658246D02*
X14287149Y-9715389D01*
X14287149Y-9715389D02*
X14277625Y-9734436D01*
X14277625Y-9734436D02*
X14268101Y-9743960D01*
X14268101Y-9743960D02*
X14249054Y-9753484D01*
X14249054Y-9753484D02*
X14220482Y-9753484D01*
X14401434Y-9753484D02*
X14382387Y-9743960D01*
X14382387Y-9743960D02*
X14372863Y-9724912D01*
X14372863Y-9724912D02*
X14372863Y-9553484D01*
X14553815Y-9743960D02*
X14534768Y-9753484D01*
X14534768Y-9753484D02*
X14496673Y-9753484D01*
X14496673Y-9753484D02*
X14477625Y-9743960D01*
X14477625Y-9743960D02*
X14468101Y-9724912D01*
X14468101Y-9724912D02*
X14468101Y-9648722D01*
X14468101Y-9648722D02*
X14477625Y-9629674D01*
X14477625Y-9629674D02*
X14496673Y-9620150D01*
X14496673Y-9620150D02*
X14534768Y-9620150D01*
X14534768Y-9620150D02*
X14553815Y-9629674D01*
X14553815Y-9629674D02*
X14563339Y-9648722D01*
X14563339Y-9648722D02*
X14563339Y-9667770D01*
X14563339Y-9667770D02*
X14468101Y-9686817D01*
X14639530Y-9743960D02*
X14658577Y-9753484D01*
X14658577Y-9753484D02*
X14696673Y-9753484D01*
X14696673Y-9753484D02*
X14715720Y-9743960D01*
X14715720Y-9743960D02*
X14725244Y-9724912D01*
X14725244Y-9724912D02*
X14725244Y-9715389D01*
X14725244Y-9715389D02*
X14715720Y-9696341D01*
X14715720Y-9696341D02*
X14696673Y-9686817D01*
X14696673Y-9686817D02*
X14668101Y-9686817D01*
X14668101Y-9686817D02*
X14649054Y-9677293D01*
X14649054Y-9677293D02*
X14639530Y-9658246D01*
X14639530Y-9658246D02*
X14639530Y-9648722D01*
X14639530Y-9648722D02*
X14649054Y-9629674D01*
X14649054Y-9629674D02*
X14668101Y-9620150D01*
X14668101Y-9620150D02*
X14696673Y-9620150D01*
X14696673Y-9620150D02*
X14715720Y-9629674D01*
X14791911Y-9829674D02*
X14801435Y-9820150D01*
X14801435Y-9820150D02*
X14820482Y-9791579D01*
X14820482Y-9791579D02*
X14830006Y-9772531D01*
X14830006Y-9772531D02*
X14839530Y-9743960D01*
X14839530Y-9743960D02*
X14849054Y-9696341D01*
X14849054Y-9696341D02*
X14849054Y-9658246D01*
X14849054Y-9658246D02*
X14839530Y-9610627D01*
X14839530Y-9610627D02*
X14830006Y-9582055D01*
X14830006Y-9582055D02*
X14820482Y-9563008D01*
X14820482Y-9563008D02*
X14801435Y-9534436D01*
X14801435Y-9534436D02*
X14791911Y-9524912D01*
M02*
