%TF.GenerationSoftware,KiCad,Pcbnew,7.0.9-1.fc39*%
%TF.CreationDate,2023-12-29T10:13:10-08:00*%
%TF.ProjectId,supermicro-ATX-PCB,73757065-726d-4696-9372-6f2d4154582d,rev?*%
%TF.SameCoordinates,Original*%
%TF.FileFunction,Copper,L1,Top*%
%TF.FilePolarity,Positive*%
%FSLAX46Y46*%
G04 Gerber Fmt 4.6, Leading zero omitted, Abs format (unit mm)*
G04 Created by KiCad (PCBNEW 7.0.9-1.fc39) date 2023-12-29 10:13:10*
%MOMM*%
%LPD*%
G01*
G04 APERTURE LIST*
%TA.AperFunction,ComponentPad*%
%ADD10R,1.700000X1.700000*%
%TD*%
%TA.AperFunction,ComponentPad*%
%ADD11O,1.700000X1.700000*%
%TD*%
%TA.AperFunction,Conductor*%
%ADD12C,0.200000*%
%TD*%
G04 APERTURE END LIST*
D10*
%TO.P,UID1,1,Pin_1*%
%TO.N,/UID_LED+*%
X123190000Y-68580000D03*
D11*
%TO.P,UID1,2,Pin_2*%
%TO.N,/UID_LED-*%
X120650000Y-68580000D03*
%TD*%
D10*
%TO.P,PWR_FAIL1,1,Pin_1*%
%TO.N,/PWR_FAIL_LED+*%
X123190000Y-63500000D03*
D11*
%TO.P,PWR_FAIL1,2,Pin_2*%
%TO.N,/PWR_FAIL_LED-*%
X120650000Y-63500000D03*
%TD*%
D10*
%TO.P,NIC2,1,Pin_1*%
%TO.N,/NIC2_LED+*%
X122936000Y-81280000D03*
D11*
%TO.P,NIC2,2,Pin_2*%
%TO.N,/NIC2_LED-*%
X120396000Y-81280000D03*
%TD*%
D10*
%TO.P,SM-JF1,1,Pin_1*%
%TO.N,/PWR_BUTT+*%
X109220000Y-63500000D03*
D11*
%TO.P,SM-JF1,2,Pin_2*%
%TO.N,/PWR_BUTT-*%
X111760000Y-63500000D03*
%TO.P,SM-JF1,3,Pin_3*%
%TO.N,/RESET_BUTT+*%
X109220000Y-66040000D03*
%TO.P,SM-JF1,4,Pin_4*%
%TO.N,/RESET_BUTT-*%
X111760000Y-66040000D03*
%TO.P,SM-JF1,5,Pin_5*%
%TO.N,/PWR_FAIL_LED+*%
X109220000Y-68580000D03*
%TO.P,SM-JF1,6,Pin_6*%
%TO.N,/PWR_FAIL_LED-*%
X111760000Y-68580000D03*
%TO.P,SM-JF1,7,Pin_7*%
%TO.N,/UID_LED+*%
X109220000Y-71120000D03*
%TO.P,SM-JF1,8,Pin_8*%
%TO.N,/UID_LED-*%
X111760000Y-71120000D03*
%TO.P,SM-JF1,9,Pin_9*%
%TO.N,/NIC2_LED+*%
X109220000Y-73660000D03*
%TO.P,SM-JF1,10,Pin_10*%
%TO.N,/NIC2_LED-*%
X111760000Y-73660000D03*
%TO.P,SM-JF1,11,Pin_11*%
%TO.N,/NIC1_LED+*%
X109220000Y-76200000D03*
%TO.P,SM-JF1,12,Pin_12*%
%TO.N,/NIC1_LED-*%
X111760000Y-76200000D03*
%TO.P,SM-JF1,13,Pin_13*%
%TO.N,/HDD_LED+*%
X109220000Y-78740000D03*
%TO.P,SM-JF1,14,Pin_14*%
%TO.N,/HDD_LED-*%
X111760000Y-78740000D03*
%TO.P,SM-JF1,15,Pin_15*%
%TO.N,/PWR_LED+*%
X109220000Y-81280000D03*
%TO.P,SM-JF1,16,Pin_16*%
%TO.N,/PWR_LED-*%
X111760000Y-81280000D03*
%TO.P,SM-JF1,17,Pin_17*%
%TO.N,unconnected-(SM-JF1-Pin_17-Pad17)*%
X109220000Y-83820000D03*
%TO.P,SM-JF1,18,Pin_18*%
%TO.N,unconnected-(SM-JF1-Pin_18-Pad18)*%
X111760000Y-83820000D03*
%TO.P,SM-JF1,19,Pin_19*%
%TO.N,unconnected-(SM-JF1-Pin_19-Pad19)*%
X109220000Y-86360000D03*
%TO.P,SM-JF1,20,Pin_20*%
%TO.N,/NMI*%
X111760000Y-86360000D03*
%TD*%
D10*
%TO.P,NIC1,1,Pin_1*%
%TO.N,/NIC1_LED+*%
X122936000Y-86360000D03*
D11*
%TO.P,NIC1,2,Pin_2*%
%TO.N,/NIC1_LED-*%
X120396000Y-86360000D03*
%TD*%
D10*
%TO.P,ATX-FP1,1,Pin_1*%
%TO.N,/HDD_LED+*%
X104140000Y-78740000D03*
D11*
%TO.P,ATX-FP1,2,Pin_2*%
%TO.N,/PWR_LED+*%
X101600000Y-78740000D03*
%TO.P,ATX-FP1,3,Pin_3*%
%TO.N,/HDD_LED-*%
X104140000Y-76200000D03*
%TO.P,ATX-FP1,4,Pin_4*%
%TO.N,/PWR_LED-*%
X101600000Y-76200000D03*
%TO.P,ATX-FP1,5,Pin_5*%
%TO.N,/RESET_BUTT+*%
X104140000Y-73660000D03*
%TO.P,ATX-FP1,6,Pin_6*%
%TO.N,/PWR_BUTT+*%
X101600000Y-73660000D03*
%TO.P,ATX-FP1,7,Pin_7*%
%TO.N,/RESET_BUTT-*%
X104140000Y-71120000D03*
%TO.P,ATX-FP1,8,Pin_8*%
%TO.N,/PWR_BUTT-*%
X101600000Y-71120000D03*
%TO.P,ATX-FP1,9,Pin_9*%
%TO.N,GND*%
X104140000Y-68580000D03*
%TO.P,ATX-FP1,10,Pin_10*%
%TO.N,unconnected-(ATX-FP1-Pin_10-Pad10)*%
X101600000Y-68580000D03*
%TD*%
D12*
%TO.N,/HDD_LED+*%
X104140000Y-78740000D02*
X109220000Y-78740000D01*
%TO.N,/PWR_LED+*%
X104140000Y-81280000D02*
X109220000Y-81280000D01*
X101600000Y-78740000D02*
X104140000Y-81280000D01*
%TO.N,/HDD_LED-*%
X104140000Y-76200000D02*
X105290000Y-77350000D01*
X105290000Y-77350000D02*
X110370000Y-77350000D01*
X110370000Y-77350000D02*
X111760000Y-78740000D01*
%TO.N,/PWR_LED-*%
X107715000Y-81680000D02*
X103974314Y-81680000D01*
X100450000Y-79216346D02*
X100450000Y-77350000D01*
X108585000Y-82550000D02*
X107715000Y-81680000D01*
X103974314Y-81680000D02*
X102587157Y-80292843D01*
X100450000Y-77350000D02*
X101600000Y-76200000D01*
X101526497Y-80292843D02*
X100450000Y-79216346D01*
X111760000Y-81280000D02*
X110490000Y-82550000D01*
X110490000Y-82550000D02*
X108585000Y-82550000D01*
X102587157Y-80292843D02*
X101526497Y-80292843D01*
%TO.N,/PWR_BUTT+*%
X105410000Y-67310000D02*
X109220000Y-63500000D01*
X100450000Y-72510000D02*
X100450000Y-67927481D01*
X101067481Y-67310000D02*
X105410000Y-67310000D01*
X101600000Y-73660000D02*
X100450000Y-72510000D01*
X100450000Y-67927481D02*
X101067481Y-67310000D01*
%TO.N,/NIC1_LED-*%
X120396000Y-86360000D02*
X120396000Y-84836000D01*
X120396000Y-84836000D02*
X111760000Y-76200000D01*
%TO.N,/NIC1_LED+*%
X111996346Y-77350000D02*
X111005000Y-77350000D01*
X112910000Y-80525000D02*
X112910000Y-78263654D01*
X119895000Y-87510000D02*
X112910000Y-80525000D01*
X111005000Y-77350000D02*
X109855000Y-76200000D01*
X109855000Y-76200000D02*
X109220000Y-76200000D01*
X112910000Y-78263654D02*
X111996346Y-77350000D01*
X122936000Y-86360000D02*
X121786000Y-87510000D01*
X121786000Y-87510000D02*
X119895000Y-87510000D01*
%TO.N,/NIC2_LED-*%
X120396000Y-81280000D02*
X112776000Y-73660000D01*
X112776000Y-73660000D02*
X111760000Y-73660000D01*
%TO.N,/NIC2_LED+*%
X119616346Y-82430000D02*
X112116346Y-74930000D01*
X112116346Y-74930000D02*
X110490000Y-74930000D01*
X110490000Y-74930000D02*
X109220000Y-73660000D01*
X121786000Y-82430000D02*
X119616346Y-82430000D01*
X122936000Y-81280000D02*
X121786000Y-82430000D01*
%TO.N,/PWR_FAIL_LED-*%
X120650000Y-63500000D02*
X115570000Y-68580000D01*
X115570000Y-68580000D02*
X111760000Y-68580000D01*
%TO.N,/PWR_FAIL_LED+*%
X112236346Y-67190000D02*
X111523654Y-67190000D01*
X111523654Y-67190000D02*
X110133654Y-68580000D01*
X110133654Y-68580000D02*
X109220000Y-68580000D01*
X122040000Y-62350000D02*
X117076346Y-62350000D01*
X117076346Y-62350000D02*
X112236346Y-67190000D01*
X123190000Y-63500000D02*
X122040000Y-62350000D01*
%TO.N,/UID_LED-*%
X120650000Y-68580000D02*
X118110000Y-71120000D01*
X118110000Y-71120000D02*
X111760000Y-71120000D01*
%TO.N,/UID_LED+*%
X117990000Y-67430000D02*
X115450000Y-69970000D01*
X115450000Y-69970000D02*
X110370000Y-69970000D01*
X123190000Y-68580000D02*
X122040000Y-67430000D01*
X122040000Y-67430000D02*
X117990000Y-67430000D01*
X110370000Y-69970000D02*
X109220000Y-71120000D01*
%TO.N,/RESET_BUTT-*%
X104140000Y-71120000D02*
X108070000Y-67190000D01*
X108070000Y-67190000D02*
X110610000Y-67190000D01*
X110610000Y-67190000D02*
X111760000Y-66040000D01*
%TO.N,/PWR_BUTT-*%
X102990000Y-69730000D02*
X104895000Y-69730000D01*
X101600000Y-71120000D02*
X102990000Y-69730000D01*
X108070000Y-65285000D02*
X108705000Y-64650000D01*
X108705000Y-64650000D02*
X110610000Y-64650000D01*
X104895000Y-69730000D02*
X108070000Y-66555000D01*
X108070000Y-66555000D02*
X108070000Y-65285000D01*
X110610000Y-64650000D02*
X111760000Y-63500000D01*
%TD*%
M02*
