%TF.GenerationSoftware,KiCad,Pcbnew,7.0.9-1.fc39*%
%TF.CreationDate,2023-12-29T10:13:13-08:00*%
%TF.ProjectId,supermicro-ATX-PCB,73757065-726d-4696-9372-6f2d4154582d,rev?*%
%TF.SameCoordinates,Original*%
%TF.FileFunction,Drillmap*%
%TF.FilePolarity,Positive*%
%FSLAX45Y45*%
G04 Gerber Fmt 4.5, Leading zero omitted, Abs format (unit mm)*
G04 Created by KiCad (PCBNEW 7.0.9-1.fc39) date 2023-12-29 10:13:13*
%MOMM*%
%LPD*%
G01*
G04 APERTURE LIST*
%ADD10C,0.100000*%
%ADD11C,0.200000*%
G04 APERTURE END LIST*
D10*
X10096500Y-8255000D02*
X10287000Y-8255000D01*
X12319000Y-9017000D02*
G75*
G03*
X12573000Y-8763000I0J254000D01*
G01*
X12319000Y-5969000D02*
X10795000Y-5969000D01*
X10096500Y-6477000D02*
X10287000Y-6477000D01*
X10541000Y-8509000D02*
X10541000Y-8763000D01*
X10541000Y-8763000D02*
G75*
G03*
X10795000Y-9017000I254000J0D01*
G01*
X9831377Y-8001000D02*
G75*
G03*
X10096500Y-8255000I254233J0D01*
G01*
X9831605Y-8001000D02*
X9831605Y-6731000D01*
X10795000Y-5969000D02*
G75*
G03*
X10541000Y-6223000I0J-254000D01*
G01*
X12573000Y-6223000D02*
X12573000Y-8763000D01*
X10287000Y-6477000D02*
G75*
G03*
X10541000Y-6223000I0J254000D01*
G01*
X10541000Y-8509000D02*
G75*
G03*
X10287000Y-8255000I-254000J0D01*
G01*
X12319000Y-9017000D02*
X10795000Y-9017000D01*
X12573000Y-6223000D02*
G75*
G03*
X12319000Y-5969000I-254000J0D01*
G01*
X10096500Y-6477005D02*
G75*
G03*
X9831372Y-6731000I-10900J-253995D01*
G01*
D11*
X10087148Y-9333484D02*
X10087148Y-9133484D01*
X10087148Y-9133484D02*
X10134767Y-9133484D01*
X10134767Y-9133484D02*
X10163339Y-9143008D01*
X10163339Y-9143008D02*
X10182387Y-9162055D01*
X10182387Y-9162055D02*
X10191910Y-9181103D01*
X10191910Y-9181103D02*
X10201434Y-9219198D01*
X10201434Y-9219198D02*
X10201434Y-9247770D01*
X10201434Y-9247770D02*
X10191910Y-9285865D01*
X10191910Y-9285865D02*
X10182387Y-9304912D01*
X10182387Y-9304912D02*
X10163339Y-9323960D01*
X10163339Y-9323960D02*
X10134767Y-9333484D01*
X10134767Y-9333484D02*
X10087148Y-9333484D01*
X10287148Y-9333484D02*
X10287148Y-9200150D01*
X10287148Y-9238246D02*
X10296672Y-9219198D01*
X10296672Y-9219198D02*
X10306196Y-9209674D01*
X10306196Y-9209674D02*
X10325244Y-9200150D01*
X10325244Y-9200150D02*
X10344291Y-9200150D01*
X10410958Y-9333484D02*
X10410958Y-9200150D01*
X10410958Y-9133484D02*
X10401434Y-9143008D01*
X10401434Y-9143008D02*
X10410958Y-9152531D01*
X10410958Y-9152531D02*
X10420482Y-9143008D01*
X10420482Y-9143008D02*
X10410958Y-9133484D01*
X10410958Y-9133484D02*
X10410958Y-9152531D01*
X10534767Y-9333484D02*
X10515720Y-9323960D01*
X10515720Y-9323960D02*
X10506196Y-9304912D01*
X10506196Y-9304912D02*
X10506196Y-9133484D01*
X10639529Y-9333484D02*
X10620482Y-9323960D01*
X10620482Y-9323960D02*
X10610958Y-9304912D01*
X10610958Y-9304912D02*
X10610958Y-9133484D01*
X10868101Y-9333484D02*
X10868101Y-9133484D01*
X10868101Y-9133484D02*
X10934768Y-9276341D01*
X10934768Y-9276341D02*
X11001434Y-9133484D01*
X11001434Y-9133484D02*
X11001434Y-9333484D01*
X11182387Y-9333484D02*
X11182387Y-9228722D01*
X11182387Y-9228722D02*
X11172863Y-9209674D01*
X11172863Y-9209674D02*
X11153815Y-9200150D01*
X11153815Y-9200150D02*
X11115720Y-9200150D01*
X11115720Y-9200150D02*
X11096672Y-9209674D01*
X11182387Y-9323960D02*
X11163339Y-9333484D01*
X11163339Y-9333484D02*
X11115720Y-9333484D01*
X11115720Y-9333484D02*
X11096672Y-9323960D01*
X11096672Y-9323960D02*
X11087148Y-9304912D01*
X11087148Y-9304912D02*
X11087148Y-9285865D01*
X11087148Y-9285865D02*
X11096672Y-9266817D01*
X11096672Y-9266817D02*
X11115720Y-9257293D01*
X11115720Y-9257293D02*
X11163339Y-9257293D01*
X11163339Y-9257293D02*
X11182387Y-9247770D01*
X11277625Y-9200150D02*
X11277625Y-9400150D01*
X11277625Y-9209674D02*
X11296672Y-9200150D01*
X11296672Y-9200150D02*
X11334767Y-9200150D01*
X11334767Y-9200150D02*
X11353815Y-9209674D01*
X11353815Y-9209674D02*
X11363339Y-9219198D01*
X11363339Y-9219198D02*
X11372863Y-9238246D01*
X11372863Y-9238246D02*
X11372863Y-9295389D01*
X11372863Y-9295389D02*
X11363339Y-9314436D01*
X11363339Y-9314436D02*
X11353815Y-9323960D01*
X11353815Y-9323960D02*
X11334767Y-9333484D01*
X11334767Y-9333484D02*
X11296672Y-9333484D01*
X11296672Y-9333484D02*
X11277625Y-9323960D01*
X11458577Y-9314436D02*
X11468101Y-9323960D01*
X11468101Y-9323960D02*
X11458577Y-9333484D01*
X11458577Y-9333484D02*
X11449053Y-9323960D01*
X11449053Y-9323960D02*
X11458577Y-9314436D01*
X11458577Y-9314436D02*
X11458577Y-9333484D01*
X11458577Y-9209674D02*
X11468101Y-9219198D01*
X11468101Y-9219198D02*
X11458577Y-9228722D01*
X11458577Y-9228722D02*
X11449053Y-9219198D01*
X11449053Y-9219198D02*
X11458577Y-9209674D01*
X11458577Y-9209674D02*
X11458577Y-9228722D01*
M02*
