%TF.GenerationSoftware,KiCad,Pcbnew,7.0.9-1.fc39*%
%TF.CreationDate,2023-12-29T10:13:10-08:00*%
%TF.ProjectId,supermicro-ATX-PCB,73757065-726d-4696-9372-6f2d4154582d,rev?*%
%TF.SameCoordinates,Original*%
%TF.FileFunction,Copper,L2,Bot*%
%TF.FilePolarity,Positive*%
%FSLAX46Y46*%
G04 Gerber Fmt 4.6, Leading zero omitted, Abs format (unit mm)*
G04 Created by KiCad (PCBNEW 7.0.9-1.fc39) date 2023-12-29 10:13:10*
%MOMM*%
%LPD*%
G01*
G04 APERTURE LIST*
%TA.AperFunction,ComponentPad*%
%ADD10R,1.700000X1.700000*%
%TD*%
%TA.AperFunction,ComponentPad*%
%ADD11O,1.700000X1.700000*%
%TD*%
%TA.AperFunction,Conductor*%
%ADD12C,0.200000*%
%TD*%
G04 APERTURE END LIST*
D10*
%TO.P,UID1,1,Pin_1*%
%TO.N,/UID_LED+*%
X123190000Y-68580000D03*
D11*
%TO.P,UID1,2,Pin_2*%
%TO.N,/UID_LED-*%
X120650000Y-68580000D03*
%TD*%
D10*
%TO.P,PWR_FAIL1,1,Pin_1*%
%TO.N,/PWR_FAIL_LED+*%
X123190000Y-63500000D03*
D11*
%TO.P,PWR_FAIL1,2,Pin_2*%
%TO.N,/PWR_FAIL_LED-*%
X120650000Y-63500000D03*
%TD*%
D10*
%TO.P,NIC2,1,Pin_1*%
%TO.N,/NIC2_LED+*%
X122936000Y-81280000D03*
D11*
%TO.P,NIC2,2,Pin_2*%
%TO.N,/NIC2_LED-*%
X120396000Y-81280000D03*
%TD*%
D10*
%TO.P,SM-JF1,1,Pin_1*%
%TO.N,/PWR_BUTT+*%
X109220000Y-63500000D03*
D11*
%TO.P,SM-JF1,2,Pin_2*%
%TO.N,/PWR_BUTT-*%
X111760000Y-63500000D03*
%TO.P,SM-JF1,3,Pin_3*%
%TO.N,/RESET_BUTT+*%
X109220000Y-66040000D03*
%TO.P,SM-JF1,4,Pin_4*%
%TO.N,/RESET_BUTT-*%
X111760000Y-66040000D03*
%TO.P,SM-JF1,5,Pin_5*%
%TO.N,/PWR_FAIL_LED+*%
X109220000Y-68580000D03*
%TO.P,SM-JF1,6,Pin_6*%
%TO.N,/PWR_FAIL_LED-*%
X111760000Y-68580000D03*
%TO.P,SM-JF1,7,Pin_7*%
%TO.N,/UID_LED+*%
X109220000Y-71120000D03*
%TO.P,SM-JF1,8,Pin_8*%
%TO.N,/UID_LED-*%
X111760000Y-71120000D03*
%TO.P,SM-JF1,9,Pin_9*%
%TO.N,/NIC2_LED+*%
X109220000Y-73660000D03*
%TO.P,SM-JF1,10,Pin_10*%
%TO.N,/NIC2_LED-*%
X111760000Y-73660000D03*
%TO.P,SM-JF1,11,Pin_11*%
%TO.N,/NIC1_LED+*%
X109220000Y-76200000D03*
%TO.P,SM-JF1,12,Pin_12*%
%TO.N,/NIC1_LED-*%
X111760000Y-76200000D03*
%TO.P,SM-JF1,13,Pin_13*%
%TO.N,/HDD_LED+*%
X109220000Y-78740000D03*
%TO.P,SM-JF1,14,Pin_14*%
%TO.N,/HDD_LED-*%
X111760000Y-78740000D03*
%TO.P,SM-JF1,15,Pin_15*%
%TO.N,/PWR_LED+*%
X109220000Y-81280000D03*
%TO.P,SM-JF1,16,Pin_16*%
%TO.N,/PWR_LED-*%
X111760000Y-81280000D03*
%TO.P,SM-JF1,17,Pin_17*%
%TO.N,unconnected-(SM-JF1-Pin_17-Pad17)*%
X109220000Y-83820000D03*
%TO.P,SM-JF1,18,Pin_18*%
%TO.N,unconnected-(SM-JF1-Pin_18-Pad18)*%
X111760000Y-83820000D03*
%TO.P,SM-JF1,19,Pin_19*%
%TO.N,unconnected-(SM-JF1-Pin_19-Pad19)*%
X109220000Y-86360000D03*
%TO.P,SM-JF1,20,Pin_20*%
%TO.N,/NMI*%
X111760000Y-86360000D03*
%TD*%
D10*
%TO.P,NIC1,1,Pin_1*%
%TO.N,/NIC1_LED+*%
X122936000Y-86360000D03*
D11*
%TO.P,NIC1,2,Pin_2*%
%TO.N,/NIC1_LED-*%
X120396000Y-86360000D03*
%TD*%
D10*
%TO.P,ATX-FP1,1,Pin_1*%
%TO.N,/HDD_LED+*%
X104140000Y-78740000D03*
D11*
%TO.P,ATX-FP1,2,Pin_2*%
%TO.N,/PWR_LED+*%
X101600000Y-78740000D03*
%TO.P,ATX-FP1,3,Pin_3*%
%TO.N,/HDD_LED-*%
X104140000Y-76200000D03*
%TO.P,ATX-FP1,4,Pin_4*%
%TO.N,/PWR_LED-*%
X101600000Y-76200000D03*
%TO.P,ATX-FP1,5,Pin_5*%
%TO.N,/RESET_BUTT+*%
X104140000Y-73660000D03*
%TO.P,ATX-FP1,6,Pin_6*%
%TO.N,/PWR_BUTT+*%
X101600000Y-73660000D03*
%TO.P,ATX-FP1,7,Pin_7*%
%TO.N,/RESET_BUTT-*%
X104140000Y-71120000D03*
%TO.P,ATX-FP1,8,Pin_8*%
%TO.N,/PWR_BUTT-*%
X101600000Y-71120000D03*
%TO.P,ATX-FP1,9,Pin_9*%
%TO.N,GND*%
X104140000Y-68580000D03*
%TO.P,ATX-FP1,10,Pin_10*%
%TO.N,unconnected-(ATX-FP1-Pin_10-Pad10)*%
X101600000Y-68580000D03*
%TD*%
D12*
%TO.N,/RESET_BUTT+*%
X104140000Y-73660000D02*
X108070000Y-69730000D01*
X108070000Y-67190000D02*
X109220000Y-66040000D01*
X108070000Y-69730000D02*
X108070000Y-67190000D01*
%TD*%
%TA.AperFunction,Conductor*%
%TO.N,GND*%
G36*
X123191737Y-59690598D02*
G01*
X123225041Y-59692467D01*
X123305603Y-59696992D01*
X123477691Y-59707401D01*
X123484297Y-59708160D01*
X123555907Y-59720327D01*
X123620343Y-59731277D01*
X123713462Y-59748340D01*
X123769227Y-59758560D01*
X123775198Y-59759963D01*
X123912032Y-59799384D01*
X124052850Y-59843265D01*
X124058092Y-59845164D01*
X124191420Y-59900391D01*
X124324609Y-59960334D01*
X124329147Y-59962605D01*
X124402221Y-60002991D01*
X124456422Y-60032947D01*
X124456439Y-60032956D01*
X124580935Y-60108217D01*
X124584739Y-60110711D01*
X124702726Y-60194427D01*
X124705072Y-60196176D01*
X124800416Y-60270874D01*
X124818332Y-60284910D01*
X124821409Y-60287486D01*
X124929430Y-60384018D01*
X124931957Y-60386408D01*
X125033590Y-60488041D01*
X125035980Y-60490568D01*
X125132512Y-60598589D01*
X125135088Y-60601666D01*
X125223811Y-60714912D01*
X125225571Y-60717272D01*
X125309287Y-60835259D01*
X125311781Y-60839063D01*
X125387043Y-60963560D01*
X125457393Y-61090851D01*
X125459668Y-61095398D01*
X125519609Y-61228581D01*
X125574831Y-61361899D01*
X125576744Y-61367183D01*
X125599633Y-61440634D01*
X125620631Y-61508021D01*
X125660032Y-61644790D01*
X125661440Y-61650781D01*
X125688722Y-61799656D01*
X125711835Y-61935683D01*
X125712599Y-61942330D01*
X125723012Y-62114475D01*
X125729402Y-62228263D01*
X125729500Y-62231741D01*
X125729500Y-87628258D01*
X125729402Y-87631736D01*
X125723012Y-87745524D01*
X125712599Y-87917668D01*
X125711835Y-87924315D01*
X125688722Y-88060343D01*
X125661440Y-88209217D01*
X125660032Y-88215208D01*
X125620625Y-88352001D01*
X125576744Y-88492815D01*
X125574831Y-88498099D01*
X125519609Y-88631418D01*
X125459668Y-88764600D01*
X125457394Y-88769147D01*
X125387043Y-88896439D01*
X125311781Y-89020936D01*
X125309287Y-89024739D01*
X125225571Y-89142726D01*
X125223811Y-89145086D01*
X125135088Y-89258332D01*
X125132512Y-89261409D01*
X125035980Y-89369430D01*
X125033590Y-89371957D01*
X124931957Y-89473590D01*
X124929430Y-89475980D01*
X124821409Y-89572512D01*
X124818332Y-89575088D01*
X124705086Y-89663811D01*
X124702726Y-89665571D01*
X124584739Y-89749287D01*
X124580936Y-89751781D01*
X124456439Y-89827043D01*
X124329147Y-89897394D01*
X124324600Y-89899668D01*
X124191418Y-89959609D01*
X124058099Y-90014831D01*
X124052815Y-90016744D01*
X123935231Y-90053385D01*
X123911990Y-90060627D01*
X123775208Y-90100032D01*
X123769217Y-90101440D01*
X123620343Y-90128722D01*
X123484315Y-90151835D01*
X123477668Y-90152599D01*
X123305524Y-90163012D01*
X123191736Y-90169402D01*
X123188258Y-90169500D01*
X107951742Y-90169500D01*
X107948265Y-90169402D01*
X107834475Y-90163012D01*
X107662330Y-90152599D01*
X107655683Y-90151835D01*
X107519656Y-90128722D01*
X107370781Y-90101440D01*
X107364790Y-90100032D01*
X107228021Y-90060631D01*
X107160634Y-90039633D01*
X107087183Y-90016744D01*
X107081899Y-90014831D01*
X106948581Y-89959609D01*
X106815398Y-89899668D01*
X106810851Y-89897393D01*
X106683560Y-89827043D01*
X106559063Y-89751781D01*
X106555259Y-89749287D01*
X106437272Y-89665571D01*
X106434912Y-89663811D01*
X106321666Y-89575088D01*
X106318589Y-89572512D01*
X106210568Y-89475980D01*
X106208041Y-89473590D01*
X106106408Y-89371957D01*
X106104018Y-89369430D01*
X106007486Y-89261409D01*
X106004910Y-89258332D01*
X105990874Y-89240416D01*
X105916176Y-89145072D01*
X105914427Y-89142726D01*
X105830711Y-89024739D01*
X105828217Y-89020935D01*
X105752956Y-88896439D01*
X105682605Y-88769147D01*
X105680330Y-88764600D01*
X105620390Y-88631418D01*
X105565167Y-88498099D01*
X105563265Y-88492850D01*
X105519375Y-88352001D01*
X105479963Y-88215198D01*
X105478560Y-88209227D01*
X105468340Y-88153462D01*
X105451277Y-88060343D01*
X105440327Y-87995907D01*
X105428160Y-87924297D01*
X105427401Y-87917691D01*
X105416992Y-87745603D01*
X105412235Y-87660888D01*
X105410598Y-87631736D01*
X105410500Y-87628259D01*
X105410500Y-84947326D01*
X105410499Y-84947322D01*
X105378554Y-84663794D01*
X105378553Y-84663789D01*
X105378552Y-84663780D01*
X105315057Y-84385591D01*
X105220814Y-84116261D01*
X105220810Y-84116254D01*
X105220807Y-84116245D01*
X105097012Y-83859181D01*
X105072389Y-83819994D01*
X104945197Y-83617569D01*
X104767289Y-83394479D01*
X104565521Y-83192711D01*
X104544548Y-83175986D01*
X104475856Y-83121206D01*
X104342431Y-83014803D01*
X104100824Y-82862991D01*
X104100825Y-82862991D01*
X104100818Y-82862987D01*
X103843754Y-82739192D01*
X103843732Y-82739183D01*
X103574420Y-82644946D01*
X103574408Y-82644942D01*
X103359714Y-82595940D01*
X103296220Y-82581448D01*
X103296217Y-82581447D01*
X103296205Y-82581445D01*
X103012677Y-82549500D01*
X103012671Y-82549500D01*
X102870099Y-82549500D01*
X101013715Y-82549500D01*
X101007600Y-82547704D01*
X100966736Y-82549424D01*
X100963213Y-82549472D01*
X100848018Y-82547770D01*
X100668929Y-82544357D01*
X100662065Y-82543844D01*
X100519471Y-82525196D01*
X100367408Y-82503249D01*
X100361205Y-82502028D01*
X100217929Y-82466160D01*
X100072986Y-82426440D01*
X100067495Y-82424657D01*
X99927677Y-82371939D01*
X99825461Y-82329733D01*
X99789866Y-82315035D01*
X99785134Y-82312843D01*
X99651427Y-82243942D01*
X99599033Y-82214241D01*
X99522092Y-82170623D01*
X99518142Y-82168183D01*
X99442272Y-82117265D01*
X99393939Y-82084827D01*
X99391470Y-82083081D01*
X99273493Y-81995269D01*
X99270277Y-81992705D01*
X99156400Y-81895546D01*
X99153750Y-81893150D01*
X99047597Y-81791452D01*
X99045107Y-81788924D01*
X98943136Y-81679289D01*
X98940456Y-81676209D01*
X98847641Y-81562063D01*
X98845800Y-81559683D01*
X98841187Y-81553408D01*
X98757220Y-81439192D01*
X98754600Y-81435330D01*
X98742568Y-81416079D01*
X98675809Y-81309256D01*
X98601242Y-81178621D01*
X98598863Y-81174012D01*
X98536093Y-81038738D01*
X98477440Y-80901318D01*
X98475423Y-80895908D01*
X98456656Y-80837385D01*
X98429539Y-80752827D01*
X98387554Y-80611175D01*
X98386074Y-80605053D01*
X98357640Y-80454110D01*
X98333095Y-80313562D01*
X98332266Y-80306298D01*
X98320097Y-80083937D01*
X98316643Y-80020829D01*
X98316551Y-80017453D01*
X98316551Y-78740005D01*
X100236844Y-78740005D01*
X100255434Y-78964359D01*
X100255436Y-78964371D01*
X100310703Y-79182614D01*
X100401140Y-79388792D01*
X100524276Y-79577265D01*
X100524284Y-79577276D01*
X100650967Y-79714888D01*
X100676760Y-79742906D01*
X100854424Y-79881189D01*
X100854425Y-79881189D01*
X100854427Y-79881191D01*
X100928912Y-79921500D01*
X101052426Y-79988342D01*
X101265365Y-80061444D01*
X101487431Y-80098500D01*
X101712569Y-80098500D01*
X101934635Y-80061444D01*
X102147574Y-79988342D01*
X102345576Y-79881189D01*
X102523240Y-79742906D01*
X102586452Y-79674239D01*
X102646337Y-79638250D01*
X102716175Y-79640349D01*
X102773791Y-79679873D01*
X102793861Y-79714888D01*
X102839111Y-79836204D01*
X102926739Y-79953261D01*
X103043796Y-80040889D01*
X103180799Y-80091989D01*
X103208050Y-80094918D01*
X103241345Y-80098499D01*
X103241362Y-80098500D01*
X105038638Y-80098500D01*
X105038654Y-80098499D01*
X105065692Y-80095591D01*
X105099201Y-80091989D01*
X105236204Y-80040889D01*
X105353261Y-79953261D01*
X105440889Y-79836204D01*
X105491989Y-79699201D01*
X105495591Y-79665692D01*
X105498499Y-79638654D01*
X105498500Y-79638637D01*
X105498500Y-77841362D01*
X105498499Y-77841345D01*
X105494672Y-77805759D01*
X105491989Y-77780799D01*
X105440889Y-77643796D01*
X105353261Y-77526739D01*
X105236204Y-77439111D01*
X105118404Y-77395172D01*
X105062471Y-77353300D01*
X105038055Y-77287835D01*
X105052908Y-77219562D01*
X105070504Y-77195014D01*
X105215722Y-77037268D01*
X105338860Y-76848791D01*
X105429296Y-76642616D01*
X105484564Y-76424368D01*
X105503156Y-76200000D01*
X105484564Y-75975632D01*
X105429296Y-75757384D01*
X105338860Y-75551209D01*
X105322706Y-75526484D01*
X105215723Y-75362734D01*
X105215715Y-75362723D01*
X105063243Y-75197097D01*
X105063238Y-75197092D01*
X104885577Y-75058812D01*
X104885578Y-75058812D01*
X104885576Y-75058811D01*
X104849070Y-75039055D01*
X104799479Y-74989836D01*
X104784371Y-74921619D01*
X104808541Y-74856064D01*
X104849070Y-74820945D01*
X104849084Y-74820936D01*
X104885576Y-74801189D01*
X105063240Y-74662906D01*
X105215722Y-74497268D01*
X105338860Y-74308791D01*
X105429296Y-74102616D01*
X105484564Y-73884368D01*
X105503156Y-73660000D01*
X105484564Y-73435632D01*
X105449394Y-73296749D01*
X105452019Y-73226929D01*
X105481917Y-73178630D01*
X107646231Y-71014316D01*
X107707552Y-70980833D01*
X107777244Y-70985817D01*
X107833177Y-71027689D01*
X107857594Y-71093153D01*
X107857487Y-71112233D01*
X107856844Y-71119997D01*
X107856844Y-71120005D01*
X107875434Y-71344359D01*
X107875436Y-71344371D01*
X107930703Y-71562614D01*
X108021140Y-71768792D01*
X108144276Y-71957265D01*
X108144284Y-71957276D01*
X108296756Y-72122902D01*
X108296760Y-72122906D01*
X108474424Y-72261189D01*
X108474429Y-72261191D01*
X108474431Y-72261193D01*
X108510930Y-72280946D01*
X108560520Y-72330165D01*
X108575628Y-72398382D01*
X108551457Y-72463937D01*
X108510930Y-72499054D01*
X108474431Y-72518806D01*
X108474422Y-72518812D01*
X108296761Y-72657092D01*
X108296756Y-72657097D01*
X108144284Y-72822723D01*
X108144276Y-72822734D01*
X108021140Y-73011207D01*
X107930703Y-73217385D01*
X107875436Y-73435628D01*
X107875434Y-73435640D01*
X107856844Y-73659994D01*
X107856844Y-73660005D01*
X107875434Y-73884359D01*
X107875436Y-73884371D01*
X107930703Y-74102614D01*
X108021140Y-74308792D01*
X108144276Y-74497265D01*
X108144284Y-74497276D01*
X108296756Y-74662902D01*
X108296760Y-74662906D01*
X108474424Y-74801189D01*
X108474429Y-74801191D01*
X108474431Y-74801193D01*
X108510930Y-74820946D01*
X108560520Y-74870165D01*
X108575628Y-74938382D01*
X108551457Y-75003937D01*
X108510930Y-75039054D01*
X108474431Y-75058806D01*
X108474422Y-75058812D01*
X108296761Y-75197092D01*
X108296756Y-75197097D01*
X108144284Y-75362723D01*
X108144276Y-75362734D01*
X108021140Y-75551207D01*
X107930703Y-75757385D01*
X107875436Y-75975628D01*
X107875434Y-75975640D01*
X107856844Y-76199994D01*
X107856844Y-76200005D01*
X107875434Y-76424359D01*
X107875436Y-76424371D01*
X107930703Y-76642614D01*
X108021140Y-76848792D01*
X108144276Y-77037265D01*
X108144284Y-77037276D01*
X108289488Y-77195007D01*
X108296760Y-77202906D01*
X108474424Y-77341189D01*
X108474429Y-77341191D01*
X108474431Y-77341193D01*
X108510930Y-77360946D01*
X108560520Y-77410165D01*
X108575628Y-77478382D01*
X108551457Y-77543937D01*
X108510930Y-77579054D01*
X108474431Y-77598806D01*
X108474422Y-77598812D01*
X108296761Y-77737092D01*
X108296756Y-77737097D01*
X108144284Y-77902723D01*
X108144276Y-77902734D01*
X108021140Y-78091207D01*
X107930703Y-78297385D01*
X107875436Y-78515628D01*
X107875434Y-78515640D01*
X107856844Y-78739994D01*
X107856844Y-78740005D01*
X107875434Y-78964359D01*
X107875436Y-78964371D01*
X107930703Y-79182614D01*
X108021140Y-79388792D01*
X108144276Y-79577265D01*
X108144284Y-79577276D01*
X108270967Y-79714888D01*
X108296760Y-79742906D01*
X108474424Y-79881189D01*
X108474429Y-79881191D01*
X108474431Y-79881193D01*
X108510930Y-79900946D01*
X108560520Y-79950165D01*
X108575628Y-80018382D01*
X108551457Y-80083937D01*
X108510930Y-80119054D01*
X108474431Y-80138806D01*
X108474422Y-80138812D01*
X108296761Y-80277092D01*
X108296756Y-80277097D01*
X108144284Y-80442723D01*
X108144276Y-80442734D01*
X108021140Y-80631207D01*
X107930703Y-80837385D01*
X107875436Y-81055628D01*
X107875434Y-81055640D01*
X107856844Y-81279994D01*
X107856844Y-81280005D01*
X107875434Y-81504359D01*
X107875436Y-81504371D01*
X107930703Y-81722614D01*
X108021140Y-81928792D01*
X108144276Y-82117265D01*
X108144284Y-82117276D01*
X108270967Y-82254888D01*
X108296760Y-82282906D01*
X108474424Y-82421189D01*
X108474429Y-82421191D01*
X108474431Y-82421193D01*
X108510930Y-82440946D01*
X108560520Y-82490165D01*
X108575628Y-82558382D01*
X108551457Y-82623937D01*
X108510930Y-82659054D01*
X108474431Y-82678806D01*
X108474422Y-82678812D01*
X108296761Y-82817092D01*
X108296756Y-82817097D01*
X108144284Y-82982723D01*
X108144276Y-82982734D01*
X108021140Y-83171207D01*
X107930703Y-83377385D01*
X107875436Y-83595628D01*
X107875434Y-83595640D01*
X107856844Y-83819994D01*
X107856844Y-83820005D01*
X107875434Y-84044359D01*
X107875436Y-84044371D01*
X107930703Y-84262614D01*
X108021140Y-84468792D01*
X108144276Y-84657265D01*
X108144284Y-84657276D01*
X108280889Y-84805666D01*
X108296760Y-84822906D01*
X108474424Y-84961189D01*
X108474429Y-84961191D01*
X108474431Y-84961193D01*
X108510930Y-84980946D01*
X108560520Y-85030165D01*
X108575628Y-85098382D01*
X108551457Y-85163937D01*
X108510930Y-85199054D01*
X108474431Y-85218806D01*
X108474422Y-85218812D01*
X108296761Y-85357092D01*
X108296756Y-85357097D01*
X108144284Y-85522723D01*
X108144276Y-85522734D01*
X108021140Y-85711207D01*
X107930703Y-85917385D01*
X107875436Y-86135628D01*
X107875434Y-86135640D01*
X107856844Y-86359994D01*
X107856844Y-86360005D01*
X107875434Y-86584359D01*
X107875436Y-86584371D01*
X107930703Y-86802614D01*
X108021140Y-87008792D01*
X108144276Y-87197265D01*
X108144284Y-87197276D01*
X108270967Y-87334888D01*
X108296760Y-87362906D01*
X108474424Y-87501189D01*
X108474425Y-87501189D01*
X108474427Y-87501191D01*
X108601135Y-87569761D01*
X108672426Y-87608342D01*
X108885365Y-87681444D01*
X109107431Y-87718500D01*
X109332569Y-87718500D01*
X109554635Y-87681444D01*
X109767574Y-87608342D01*
X109965576Y-87501189D01*
X110143240Y-87362906D01*
X110295722Y-87197268D01*
X110386193Y-87058790D01*
X110439338Y-87013437D01*
X110508569Y-87004013D01*
X110571905Y-87033515D01*
X110593804Y-87058787D01*
X110684278Y-87197268D01*
X110684283Y-87197273D01*
X110684284Y-87197276D01*
X110810967Y-87334888D01*
X110836760Y-87362906D01*
X111014424Y-87501189D01*
X111014425Y-87501189D01*
X111014427Y-87501191D01*
X111141135Y-87569761D01*
X111212426Y-87608342D01*
X111425365Y-87681444D01*
X111647431Y-87718500D01*
X111872569Y-87718500D01*
X112094635Y-87681444D01*
X112307574Y-87608342D01*
X112505576Y-87501189D01*
X112683240Y-87362906D01*
X112835722Y-87197268D01*
X112958860Y-87008791D01*
X113049296Y-86802616D01*
X113104564Y-86584368D01*
X113123156Y-86360005D01*
X119032844Y-86360005D01*
X119051434Y-86584359D01*
X119051436Y-86584371D01*
X119106703Y-86802614D01*
X119197140Y-87008792D01*
X119320276Y-87197265D01*
X119320284Y-87197276D01*
X119446967Y-87334888D01*
X119472760Y-87362906D01*
X119650424Y-87501189D01*
X119650425Y-87501189D01*
X119650427Y-87501191D01*
X119777135Y-87569761D01*
X119848426Y-87608342D01*
X120061365Y-87681444D01*
X120283431Y-87718500D01*
X120508569Y-87718500D01*
X120730635Y-87681444D01*
X120943574Y-87608342D01*
X121141576Y-87501189D01*
X121319240Y-87362906D01*
X121382452Y-87294239D01*
X121442337Y-87258250D01*
X121512175Y-87260349D01*
X121569791Y-87299873D01*
X121589861Y-87334888D01*
X121635111Y-87456204D01*
X121722739Y-87573261D01*
X121839796Y-87660889D01*
X121976799Y-87711989D01*
X122004050Y-87714918D01*
X122037345Y-87718499D01*
X122037362Y-87718500D01*
X123834638Y-87718500D01*
X123834654Y-87718499D01*
X123861692Y-87715591D01*
X123895201Y-87711989D01*
X124032204Y-87660889D01*
X124149261Y-87573261D01*
X124236889Y-87456204D01*
X124287989Y-87319201D01*
X124291591Y-87285692D01*
X124294499Y-87258654D01*
X124294500Y-87258637D01*
X124294500Y-85461362D01*
X124294499Y-85461345D01*
X124290672Y-85425759D01*
X124287989Y-85400799D01*
X124236889Y-85263796D01*
X124149261Y-85146739D01*
X124032204Y-85059111D01*
X123895203Y-85008011D01*
X123834654Y-85001500D01*
X123834638Y-85001500D01*
X122037362Y-85001500D01*
X122037345Y-85001500D01*
X121976797Y-85008011D01*
X121976795Y-85008011D01*
X121839795Y-85059111D01*
X121722739Y-85146739D01*
X121635111Y-85263795D01*
X121589861Y-85385111D01*
X121547989Y-85441044D01*
X121482524Y-85465460D01*
X121414252Y-85450607D01*
X121382454Y-85425762D01*
X121319240Y-85357094D01*
X121141576Y-85218811D01*
X121141575Y-85218810D01*
X121141572Y-85218808D01*
X120943580Y-85111661D01*
X120943577Y-85111659D01*
X120943574Y-85111658D01*
X120943571Y-85111657D01*
X120943569Y-85111656D01*
X120730637Y-85038556D01*
X120508569Y-85001500D01*
X120283431Y-85001500D01*
X120061362Y-85038556D01*
X119848430Y-85111656D01*
X119848419Y-85111661D01*
X119650427Y-85218808D01*
X119650422Y-85218812D01*
X119472761Y-85357092D01*
X119472756Y-85357097D01*
X119320284Y-85522723D01*
X119320276Y-85522734D01*
X119197140Y-85711207D01*
X119106703Y-85917385D01*
X119051436Y-86135628D01*
X119051434Y-86135640D01*
X119032844Y-86359994D01*
X119032844Y-86360005D01*
X113123156Y-86360005D01*
X113123156Y-86360000D01*
X113104564Y-86135632D01*
X113049296Y-85917384D01*
X112958860Y-85711209D01*
X112942706Y-85686484D01*
X112835723Y-85522734D01*
X112835715Y-85522723D01*
X112683243Y-85357097D01*
X112683238Y-85357092D01*
X112505577Y-85218812D01*
X112505578Y-85218812D01*
X112505576Y-85218811D01*
X112469070Y-85199055D01*
X112419479Y-85149836D01*
X112404371Y-85081619D01*
X112428541Y-85016064D01*
X112469070Y-84980945D01*
X112469084Y-84980936D01*
X112505576Y-84961189D01*
X112683240Y-84822906D01*
X112782614Y-84714957D01*
X112835715Y-84657276D01*
X112835717Y-84657273D01*
X112835722Y-84657268D01*
X112958860Y-84468791D01*
X113049296Y-84262616D01*
X113104564Y-84044368D01*
X113104565Y-84044359D01*
X113123156Y-83820005D01*
X113123156Y-83819994D01*
X113104565Y-83595640D01*
X113104563Y-83595628D01*
X113049296Y-83377385D01*
X112968291Y-83192711D01*
X112958860Y-83171209D01*
X112942706Y-83146484D01*
X112835723Y-82982734D01*
X112835715Y-82982723D01*
X112683243Y-82817097D01*
X112683238Y-82817092D01*
X112505577Y-82678812D01*
X112505578Y-82678812D01*
X112505576Y-82678811D01*
X112469070Y-82659055D01*
X112419479Y-82609836D01*
X112404371Y-82541619D01*
X112428541Y-82476064D01*
X112469070Y-82440945D01*
X112478039Y-82436091D01*
X112505576Y-82421189D01*
X112683240Y-82282906D01*
X112835722Y-82117268D01*
X112958860Y-81928791D01*
X113049296Y-81722616D01*
X113104564Y-81504368D01*
X113104565Y-81504359D01*
X113123156Y-81280005D01*
X119032844Y-81280005D01*
X119051434Y-81504359D01*
X119051436Y-81504371D01*
X119106703Y-81722614D01*
X119197140Y-81928792D01*
X119320276Y-82117265D01*
X119320284Y-82117276D01*
X119446967Y-82254888D01*
X119472760Y-82282906D01*
X119650424Y-82421189D01*
X119650425Y-82421189D01*
X119650427Y-82421191D01*
X119733523Y-82466160D01*
X119848426Y-82528342D01*
X120061365Y-82601444D01*
X120283431Y-82638500D01*
X120508569Y-82638500D01*
X120730635Y-82601444D01*
X120943574Y-82528342D01*
X121141576Y-82421189D01*
X121319240Y-82282906D01*
X121382452Y-82214239D01*
X121442337Y-82178250D01*
X121512175Y-82180349D01*
X121569791Y-82219873D01*
X121589861Y-82254888D01*
X121617778Y-82329733D01*
X121635111Y-82376204D01*
X121722739Y-82493261D01*
X121839796Y-82580889D01*
X121976799Y-82631989D01*
X122004050Y-82634918D01*
X122037345Y-82638499D01*
X122037362Y-82638500D01*
X123834638Y-82638500D01*
X123834654Y-82638499D01*
X123861692Y-82635591D01*
X123895201Y-82631989D01*
X124032204Y-82580889D01*
X124149261Y-82493261D01*
X124236889Y-82376204D01*
X124287989Y-82239201D01*
X124291591Y-82205692D01*
X124294499Y-82178654D01*
X124294500Y-82178637D01*
X124294500Y-80381362D01*
X124294499Y-80381345D01*
X124290672Y-80345759D01*
X124287989Y-80320799D01*
X124282580Y-80306298D01*
X124265522Y-80260564D01*
X124236889Y-80183796D01*
X124149261Y-80066739D01*
X124032204Y-79979111D01*
X123895203Y-79928011D01*
X123834654Y-79921500D01*
X123834638Y-79921500D01*
X122037362Y-79921500D01*
X122037345Y-79921500D01*
X121976797Y-79928011D01*
X121976795Y-79928011D01*
X121839795Y-79979111D01*
X121722739Y-80066739D01*
X121635111Y-80183795D01*
X121589861Y-80305111D01*
X121547989Y-80361044D01*
X121482524Y-80385460D01*
X121414252Y-80370607D01*
X121382454Y-80345762D01*
X121319240Y-80277094D01*
X121141576Y-80138811D01*
X121141575Y-80138810D01*
X121141572Y-80138808D01*
X120943580Y-80031661D01*
X120943577Y-80031659D01*
X120943574Y-80031658D01*
X120943571Y-80031657D01*
X120943569Y-80031656D01*
X120730637Y-79958556D01*
X120508569Y-79921500D01*
X120283431Y-79921500D01*
X120061362Y-79958556D01*
X119848430Y-80031656D01*
X119848419Y-80031661D01*
X119650427Y-80138808D01*
X119650422Y-80138812D01*
X119472761Y-80277092D01*
X119472756Y-80277097D01*
X119320284Y-80442723D01*
X119320276Y-80442734D01*
X119197140Y-80631207D01*
X119106703Y-80837385D01*
X119051436Y-81055628D01*
X119051434Y-81055640D01*
X119032844Y-81279994D01*
X119032844Y-81280005D01*
X113123156Y-81280005D01*
X113123156Y-81279994D01*
X113104565Y-81055640D01*
X113104563Y-81055628D01*
X113049296Y-80837385D01*
X112958859Y-80631207D01*
X112897291Y-80536970D01*
X112835722Y-80442732D01*
X112835719Y-80442729D01*
X112835715Y-80442723D01*
X112683243Y-80277097D01*
X112683238Y-80277092D01*
X112505577Y-80138812D01*
X112505578Y-80138812D01*
X112505576Y-80138811D01*
X112469070Y-80119055D01*
X112419479Y-80069836D01*
X112404371Y-80001619D01*
X112428541Y-79936064D01*
X112469070Y-79900945D01*
X112469084Y-79900936D01*
X112505576Y-79881189D01*
X112683240Y-79742906D01*
X112835722Y-79577268D01*
X112958860Y-79388791D01*
X113049296Y-79182616D01*
X113104564Y-78964368D01*
X113123156Y-78740000D01*
X113104564Y-78515632D01*
X113049296Y-78297384D01*
X112958860Y-78091209D01*
X112942706Y-78066484D01*
X112835723Y-77902734D01*
X112835715Y-77902723D01*
X112683243Y-77737097D01*
X112683238Y-77737092D01*
X112505577Y-77598812D01*
X112505578Y-77598812D01*
X112505576Y-77598811D01*
X112469070Y-77579055D01*
X112419479Y-77529836D01*
X112404371Y-77461619D01*
X112428541Y-77396064D01*
X112469070Y-77360945D01*
X112469084Y-77360936D01*
X112505576Y-77341189D01*
X112683240Y-77202906D01*
X112835722Y-77037268D01*
X112958860Y-76848791D01*
X113049296Y-76642616D01*
X113104564Y-76424368D01*
X113123156Y-76200000D01*
X113104564Y-75975632D01*
X113049296Y-75757384D01*
X112958860Y-75551209D01*
X112942706Y-75526484D01*
X112835723Y-75362734D01*
X112835715Y-75362723D01*
X112683243Y-75197097D01*
X112683238Y-75197092D01*
X112505577Y-75058812D01*
X112505578Y-75058812D01*
X112505576Y-75058811D01*
X112469070Y-75039055D01*
X112419479Y-74989836D01*
X112404371Y-74921619D01*
X112428541Y-74856064D01*
X112469070Y-74820945D01*
X112469084Y-74820936D01*
X112505576Y-74801189D01*
X112683240Y-74662906D01*
X112835722Y-74497268D01*
X112958860Y-74308791D01*
X113049296Y-74102616D01*
X113104564Y-73884368D01*
X113123156Y-73660000D01*
X113104564Y-73435632D01*
X113049296Y-73217384D01*
X112958860Y-73011209D01*
X112942706Y-72986484D01*
X112835723Y-72822734D01*
X112835715Y-72822723D01*
X112683243Y-72657097D01*
X112683238Y-72657092D01*
X112505577Y-72518812D01*
X112505578Y-72518812D01*
X112505576Y-72518811D01*
X112469070Y-72499055D01*
X112419479Y-72449836D01*
X112404371Y-72381619D01*
X112428541Y-72316064D01*
X112469070Y-72280945D01*
X112469084Y-72280936D01*
X112505576Y-72261189D01*
X112683240Y-72122906D01*
X112835722Y-71957268D01*
X112958860Y-71768791D01*
X113049296Y-71562616D01*
X113104564Y-71344368D01*
X113104565Y-71344359D01*
X113123156Y-71120005D01*
X113123156Y-71119994D01*
X113104565Y-70895640D01*
X113104563Y-70895628D01*
X113049296Y-70677385D01*
X112958859Y-70471207D01*
X112835723Y-70282734D01*
X112835715Y-70282723D01*
X112683243Y-70117097D01*
X112683238Y-70117092D01*
X112505577Y-69978812D01*
X112505578Y-69978812D01*
X112505576Y-69978811D01*
X112469070Y-69959055D01*
X112419479Y-69909836D01*
X112404371Y-69841619D01*
X112428541Y-69776064D01*
X112469070Y-69740945D01*
X112469084Y-69740936D01*
X112505576Y-69721189D01*
X112683240Y-69582906D01*
X112804594Y-69451082D01*
X112835715Y-69417276D01*
X112835717Y-69417273D01*
X112835722Y-69417268D01*
X112958860Y-69228791D01*
X113049296Y-69022616D01*
X113104564Y-68804368D01*
X113123156Y-68580005D01*
X119286844Y-68580005D01*
X119305434Y-68804359D01*
X119305436Y-68804371D01*
X119360703Y-69022614D01*
X119451140Y-69228792D01*
X119574276Y-69417265D01*
X119574284Y-69417276D01*
X119700967Y-69554888D01*
X119726760Y-69582906D01*
X119904424Y-69721189D01*
X119904425Y-69721189D01*
X119904427Y-69721191D01*
X119947985Y-69744763D01*
X120102426Y-69828342D01*
X120315365Y-69901444D01*
X120537431Y-69938500D01*
X120762569Y-69938500D01*
X120984635Y-69901444D01*
X121197574Y-69828342D01*
X121395576Y-69721189D01*
X121573240Y-69582906D01*
X121636452Y-69514239D01*
X121696337Y-69478250D01*
X121766175Y-69480349D01*
X121823791Y-69519873D01*
X121843861Y-69554888D01*
X121867442Y-69618108D01*
X121889111Y-69676204D01*
X121976739Y-69793261D01*
X122093796Y-69880889D01*
X122230799Y-69931989D01*
X122258050Y-69934918D01*
X122291345Y-69938499D01*
X122291362Y-69938500D01*
X124088638Y-69938500D01*
X124088654Y-69938499D01*
X124115692Y-69935591D01*
X124149201Y-69931989D01*
X124286204Y-69880889D01*
X124403261Y-69793261D01*
X124490889Y-69676204D01*
X124541989Y-69539201D01*
X124546889Y-69493627D01*
X124548499Y-69478654D01*
X124548500Y-69478637D01*
X124548500Y-67681362D01*
X124548499Y-67681345D01*
X124544672Y-67645759D01*
X124541989Y-67620799D01*
X124490889Y-67483796D01*
X124403261Y-67366739D01*
X124286204Y-67279111D01*
X124149203Y-67228011D01*
X124088654Y-67221500D01*
X124088638Y-67221500D01*
X122291362Y-67221500D01*
X122291345Y-67221500D01*
X122230797Y-67228011D01*
X122230795Y-67228011D01*
X122093795Y-67279111D01*
X121976739Y-67366739D01*
X121889111Y-67483795D01*
X121843861Y-67605111D01*
X121801989Y-67661044D01*
X121736524Y-67685460D01*
X121668252Y-67670607D01*
X121636454Y-67645762D01*
X121573240Y-67577094D01*
X121395576Y-67438811D01*
X121395575Y-67438810D01*
X121395572Y-67438808D01*
X121197580Y-67331661D01*
X121197577Y-67331659D01*
X121197574Y-67331658D01*
X121197571Y-67331657D01*
X121197569Y-67331656D01*
X120984637Y-67258556D01*
X120762569Y-67221500D01*
X120537431Y-67221500D01*
X120315362Y-67258556D01*
X120102430Y-67331656D01*
X120102419Y-67331661D01*
X119904427Y-67438808D01*
X119904422Y-67438812D01*
X119726761Y-67577092D01*
X119726756Y-67577097D01*
X119574284Y-67742723D01*
X119574276Y-67742734D01*
X119451140Y-67931207D01*
X119360703Y-68137385D01*
X119305436Y-68355628D01*
X119305434Y-68355640D01*
X119286844Y-68579994D01*
X119286844Y-68580005D01*
X113123156Y-68580005D01*
X113123156Y-68580000D01*
X113104564Y-68355632D01*
X113049296Y-68137384D01*
X112958860Y-67931209D01*
X112942706Y-67906484D01*
X112835723Y-67742734D01*
X112835715Y-67742723D01*
X112683243Y-67577097D01*
X112683238Y-67577092D01*
X112505577Y-67438812D01*
X112505578Y-67438812D01*
X112505576Y-67438811D01*
X112469070Y-67419055D01*
X112419479Y-67369836D01*
X112404371Y-67301619D01*
X112428541Y-67236064D01*
X112469070Y-67200945D01*
X112469084Y-67200936D01*
X112505576Y-67181189D01*
X112683240Y-67042906D01*
X112830163Y-66883307D01*
X112835715Y-66877276D01*
X112835717Y-66877273D01*
X112835722Y-66877268D01*
X112958860Y-66688791D01*
X113049296Y-66482616D01*
X113104564Y-66264368D01*
X113111623Y-66179184D01*
X113123156Y-66040005D01*
X113123156Y-66039994D01*
X113104565Y-65815640D01*
X113104563Y-65815628D01*
X113072488Y-65688967D01*
X113049296Y-65597384D01*
X112958860Y-65391209D01*
X112942706Y-65366484D01*
X112835723Y-65202734D01*
X112835715Y-65202723D01*
X112683243Y-65037097D01*
X112683238Y-65037092D01*
X112505577Y-64898812D01*
X112505578Y-64898812D01*
X112505576Y-64898811D01*
X112469070Y-64879055D01*
X112419479Y-64829836D01*
X112404371Y-64761619D01*
X112428541Y-64696064D01*
X112469070Y-64660945D01*
X112469084Y-64660936D01*
X112505576Y-64641189D01*
X112683240Y-64502906D01*
X112835722Y-64337268D01*
X112958860Y-64148791D01*
X113049296Y-63942616D01*
X113104564Y-63724368D01*
X113106382Y-63702429D01*
X113123156Y-63500005D01*
X119286844Y-63500005D01*
X119305434Y-63724359D01*
X119305436Y-63724371D01*
X119360703Y-63942614D01*
X119451140Y-64148792D01*
X119574276Y-64337265D01*
X119574284Y-64337276D01*
X119700967Y-64474888D01*
X119726760Y-64502906D01*
X119904424Y-64641189D01*
X119904425Y-64641189D01*
X119904427Y-64641191D01*
X120005824Y-64696064D01*
X120102426Y-64748342D01*
X120315365Y-64821444D01*
X120537431Y-64858500D01*
X120762569Y-64858500D01*
X120984635Y-64821444D01*
X121197574Y-64748342D01*
X121395576Y-64641189D01*
X121573240Y-64502906D01*
X121636452Y-64434239D01*
X121696337Y-64398250D01*
X121766175Y-64400349D01*
X121823791Y-64439873D01*
X121843861Y-64474888D01*
X121889111Y-64596204D01*
X121976739Y-64713261D01*
X122093796Y-64800889D01*
X122230799Y-64851989D01*
X122258050Y-64854918D01*
X122291345Y-64858499D01*
X122291362Y-64858500D01*
X124088638Y-64858500D01*
X124088654Y-64858499D01*
X124115692Y-64855591D01*
X124149201Y-64851989D01*
X124286204Y-64800889D01*
X124403261Y-64713261D01*
X124490889Y-64596204D01*
X124541989Y-64459201D01*
X124547344Y-64409391D01*
X124548499Y-64398654D01*
X124548500Y-64398637D01*
X124548500Y-62601362D01*
X124548499Y-62601345D01*
X124545157Y-62570270D01*
X124541989Y-62540799D01*
X124536137Y-62525110D01*
X124519522Y-62480564D01*
X124490889Y-62403796D01*
X124403261Y-62286739D01*
X124286204Y-62199111D01*
X124149203Y-62148011D01*
X124088654Y-62141500D01*
X124088638Y-62141500D01*
X122291362Y-62141500D01*
X122291345Y-62141500D01*
X122230797Y-62148011D01*
X122230795Y-62148011D01*
X122093795Y-62199111D01*
X121976739Y-62286739D01*
X121889111Y-62403795D01*
X121843861Y-62525111D01*
X121801989Y-62581044D01*
X121736524Y-62605460D01*
X121668252Y-62590607D01*
X121636454Y-62565762D01*
X121573240Y-62497094D01*
X121395576Y-62358811D01*
X121395575Y-62358810D01*
X121395572Y-62358808D01*
X121197580Y-62251661D01*
X121197577Y-62251659D01*
X121197574Y-62251658D01*
X121197571Y-62251657D01*
X121197569Y-62251656D01*
X120984637Y-62178556D01*
X120762569Y-62141500D01*
X120537431Y-62141500D01*
X120315362Y-62178556D01*
X120102430Y-62251656D01*
X120102419Y-62251661D01*
X119904427Y-62358808D01*
X119904422Y-62358812D01*
X119726761Y-62497092D01*
X119726756Y-62497097D01*
X119574284Y-62662723D01*
X119574276Y-62662734D01*
X119451140Y-62851207D01*
X119360703Y-63057385D01*
X119305436Y-63275628D01*
X119305434Y-63275640D01*
X119286844Y-63499994D01*
X119286844Y-63500005D01*
X113123156Y-63500005D01*
X113123156Y-63499994D01*
X113104565Y-63275640D01*
X113104563Y-63275628D01*
X113049296Y-63057385D01*
X112995354Y-62934409D01*
X112958860Y-62851209D01*
X112835722Y-62662732D01*
X112835719Y-62662729D01*
X112835715Y-62662723D01*
X112683243Y-62497097D01*
X112683238Y-62497092D01*
X112523391Y-62372677D01*
X112505576Y-62358811D01*
X112505575Y-62358810D01*
X112505572Y-62358808D01*
X112307580Y-62251661D01*
X112307577Y-62251659D01*
X112307574Y-62251658D01*
X112307571Y-62251657D01*
X112307569Y-62251656D01*
X112094637Y-62178556D01*
X111872569Y-62141500D01*
X111647431Y-62141500D01*
X111425362Y-62178556D01*
X111212430Y-62251656D01*
X111212419Y-62251661D01*
X111014427Y-62358808D01*
X111014422Y-62358812D01*
X110836761Y-62497092D01*
X110773548Y-62565760D01*
X110713661Y-62601750D01*
X110643823Y-62599649D01*
X110586207Y-62560124D01*
X110566138Y-62525110D01*
X110520889Y-62403796D01*
X110520888Y-62403795D01*
X110433261Y-62286739D01*
X110316204Y-62199111D01*
X110179203Y-62148011D01*
X110118654Y-62141500D01*
X110118638Y-62141500D01*
X108321362Y-62141500D01*
X108321345Y-62141500D01*
X108260797Y-62148011D01*
X108260795Y-62148011D01*
X108123795Y-62199111D01*
X108006739Y-62286739D01*
X107919111Y-62403795D01*
X107868011Y-62540795D01*
X107868011Y-62540797D01*
X107861500Y-62601345D01*
X107861500Y-64398654D01*
X107868011Y-64459202D01*
X107868011Y-64459204D01*
X107919111Y-64596204D01*
X108006739Y-64713261D01*
X108123796Y-64800889D01*
X108166404Y-64816781D01*
X108241595Y-64844827D01*
X108297528Y-64886699D01*
X108321944Y-64952163D01*
X108307092Y-65020436D01*
X108289490Y-65044991D01*
X108144279Y-65202730D01*
X108144276Y-65202734D01*
X108021140Y-65391207D01*
X107930703Y-65597385D01*
X107875436Y-65815628D01*
X107875434Y-65815640D01*
X107856844Y-66039994D01*
X107856844Y-66040005D01*
X107875435Y-66264364D01*
X107910605Y-66403248D01*
X107907980Y-66473068D01*
X107878080Y-66521369D01*
X107670801Y-66728649D01*
X107664698Y-66734000D01*
X107636013Y-66756012D01*
X107611521Y-66787929D01*
X107538335Y-66883307D01*
X107537694Y-66885010D01*
X107477163Y-67031146D01*
X107477162Y-67031150D01*
X107460957Y-67154241D01*
X107460955Y-67154254D01*
X107456250Y-67190000D01*
X107460969Y-67225843D01*
X107461500Y-67233945D01*
X107461500Y-69426588D01*
X107441815Y-69493627D01*
X107425181Y-69514269D01*
X105713770Y-71225679D01*
X105652447Y-71259164D01*
X105582755Y-71254180D01*
X105526822Y-71212308D01*
X105502405Y-71146844D01*
X105502512Y-71127760D01*
X105503156Y-71120000D01*
X105502512Y-71112233D01*
X105484565Y-70895640D01*
X105484563Y-70895628D01*
X105429296Y-70677385D01*
X105338859Y-70471207D01*
X105215723Y-70282734D01*
X105215715Y-70282723D01*
X105063243Y-70117097D01*
X105063238Y-70117092D01*
X104885577Y-69978812D01*
X104885577Y-69978811D01*
X104842303Y-69955393D01*
X104792713Y-69906173D01*
X104777605Y-69837957D01*
X104801775Y-69772401D01*
X104830198Y-69744763D01*
X105011079Y-69618108D01*
X105178105Y-69451082D01*
X105313600Y-69257578D01*
X105413429Y-69043492D01*
X105413432Y-69043486D01*
X105470636Y-68830000D01*
X104573686Y-68830000D01*
X104599493Y-68789844D01*
X104640000Y-68651889D01*
X104640000Y-68508111D01*
X104599493Y-68370156D01*
X104573686Y-68330000D01*
X105470636Y-68330000D01*
X105470635Y-68329999D01*
X105413432Y-68116513D01*
X105413429Y-68116507D01*
X105313600Y-67902422D01*
X105313599Y-67902420D01*
X105178113Y-67708926D01*
X105178108Y-67708920D01*
X105011082Y-67541894D01*
X104817578Y-67406399D01*
X104603492Y-67306570D01*
X104603486Y-67306567D01*
X104390000Y-67249364D01*
X104390000Y-68144498D01*
X104282315Y-68095320D01*
X104175763Y-68080000D01*
X104104237Y-68080000D01*
X103997685Y-68095320D01*
X103890000Y-68144498D01*
X103890000Y-67249364D01*
X103889999Y-67249364D01*
X103676513Y-67306567D01*
X103676507Y-67306570D01*
X103462422Y-67406399D01*
X103462420Y-67406400D01*
X103268926Y-67541886D01*
X103268920Y-67541891D01*
X103101891Y-67708920D01*
X103101890Y-67708922D01*
X102975131Y-67889952D01*
X102920554Y-67933577D01*
X102851055Y-67940769D01*
X102788701Y-67909247D01*
X102769752Y-67886656D01*
X102675722Y-67742732D01*
X102675715Y-67742725D01*
X102675715Y-67742723D01*
X102523243Y-67577097D01*
X102523238Y-67577092D01*
X102345577Y-67438812D01*
X102345572Y-67438808D01*
X102147580Y-67331661D01*
X102147577Y-67331659D01*
X102147574Y-67331658D01*
X102147571Y-67331657D01*
X102147569Y-67331656D01*
X101934637Y-67258556D01*
X101712569Y-67221500D01*
X101487431Y-67221500D01*
X101265362Y-67258556D01*
X101052430Y-67331656D01*
X101052419Y-67331661D01*
X100854427Y-67438808D01*
X100854422Y-67438812D01*
X100676761Y-67577092D01*
X100676756Y-67577097D01*
X100524284Y-67742723D01*
X100524276Y-67742734D01*
X100401140Y-67931207D01*
X100310703Y-68137385D01*
X100255436Y-68355628D01*
X100255434Y-68355640D01*
X100236844Y-68579994D01*
X100236844Y-68580005D01*
X100255434Y-68804359D01*
X100255436Y-68804371D01*
X100310703Y-69022614D01*
X100401140Y-69228792D01*
X100524276Y-69417265D01*
X100524284Y-69417276D01*
X100650967Y-69554888D01*
X100676760Y-69582906D01*
X100854424Y-69721189D01*
X100854429Y-69721191D01*
X100854431Y-69721193D01*
X100890930Y-69740946D01*
X100940520Y-69790165D01*
X100955628Y-69858382D01*
X100931457Y-69923937D01*
X100890930Y-69959054D01*
X100854431Y-69978806D01*
X100854422Y-69978812D01*
X100676761Y-70117092D01*
X100676756Y-70117097D01*
X100524284Y-70282723D01*
X100524276Y-70282734D01*
X100401140Y-70471207D01*
X100310703Y-70677385D01*
X100255436Y-70895628D01*
X100255434Y-70895640D01*
X100236844Y-71119994D01*
X100236844Y-71120005D01*
X100255434Y-71344359D01*
X100255436Y-71344371D01*
X100310703Y-71562614D01*
X100401140Y-71768792D01*
X100524276Y-71957265D01*
X100524284Y-71957276D01*
X100676756Y-72122902D01*
X100676760Y-72122906D01*
X100854424Y-72261189D01*
X100854429Y-72261191D01*
X100854431Y-72261193D01*
X100890930Y-72280946D01*
X100940520Y-72330165D01*
X100955628Y-72398382D01*
X100931457Y-72463937D01*
X100890930Y-72499054D01*
X100854431Y-72518806D01*
X100854422Y-72518812D01*
X100676761Y-72657092D01*
X100676756Y-72657097D01*
X100524284Y-72822723D01*
X100524276Y-72822734D01*
X100401140Y-73011207D01*
X100310703Y-73217385D01*
X100255436Y-73435628D01*
X100255434Y-73435640D01*
X100236844Y-73659994D01*
X100236844Y-73660005D01*
X100255434Y-73884359D01*
X100255436Y-73884371D01*
X100310703Y-74102614D01*
X100401140Y-74308792D01*
X100524276Y-74497265D01*
X100524284Y-74497276D01*
X100676756Y-74662902D01*
X100676760Y-74662906D01*
X100854424Y-74801189D01*
X100854429Y-74801191D01*
X100854431Y-74801193D01*
X100890930Y-74820946D01*
X100940520Y-74870165D01*
X100955628Y-74938382D01*
X100931457Y-75003937D01*
X100890930Y-75039054D01*
X100854431Y-75058806D01*
X100854422Y-75058812D01*
X100676761Y-75197092D01*
X100676756Y-75197097D01*
X100524284Y-75362723D01*
X100524276Y-75362734D01*
X100401140Y-75551207D01*
X100310703Y-75757385D01*
X100255436Y-75975628D01*
X100255434Y-75975640D01*
X100236844Y-76199994D01*
X100236844Y-76200005D01*
X100255434Y-76424359D01*
X100255436Y-76424371D01*
X100310703Y-76642614D01*
X100401140Y-76848792D01*
X100524276Y-77037265D01*
X100524284Y-77037276D01*
X100669488Y-77195007D01*
X100676760Y-77202906D01*
X100854424Y-77341189D01*
X100854429Y-77341191D01*
X100854431Y-77341193D01*
X100890930Y-77360946D01*
X100940520Y-77410165D01*
X100955628Y-77478382D01*
X100931457Y-77543937D01*
X100890930Y-77579054D01*
X100854431Y-77598806D01*
X100854422Y-77598812D01*
X100676761Y-77737092D01*
X100676756Y-77737097D01*
X100524284Y-77902723D01*
X100524276Y-77902734D01*
X100401140Y-78091207D01*
X100310703Y-78297385D01*
X100255436Y-78515628D01*
X100255434Y-78515640D01*
X100236844Y-78739994D01*
X100236844Y-78740005D01*
X98316551Y-78740005D01*
X98316551Y-67298015D01*
X98315655Y-67285049D01*
X98320969Y-67192950D01*
X98332034Y-67014430D01*
X98332838Y-67007614D01*
X98357601Y-66865818D01*
X98386027Y-66714924D01*
X98387495Y-66708852D01*
X98429492Y-66567166D01*
X98475388Y-66424047D01*
X98477372Y-66418727D01*
X98536056Y-66281240D01*
X98543887Y-66264364D01*
X98598814Y-66145990D01*
X98601181Y-66141405D01*
X98675786Y-66010706D01*
X98754575Y-65884641D01*
X98757158Y-65880836D01*
X98845801Y-65760261D01*
X98847593Y-65757945D01*
X98940442Y-65643762D01*
X98943066Y-65640746D01*
X99045090Y-65531057D01*
X99047580Y-65528532D01*
X99153725Y-65426843D01*
X99156318Y-65424499D01*
X99270295Y-65327259D01*
X99273455Y-65324740D01*
X99391497Y-65236885D01*
X99393853Y-65235219D01*
X99518164Y-65151795D01*
X99522036Y-65149403D01*
X99651368Y-65076088D01*
X99785162Y-65007147D01*
X99789840Y-65004982D01*
X99927623Y-64948092D01*
X100067520Y-64895349D01*
X100072946Y-64893587D01*
X100217881Y-64853875D01*
X100361225Y-64817994D01*
X100367395Y-64816781D01*
X100519385Y-64794849D01*
X100662105Y-64776189D01*
X100668925Y-64775679D01*
X100840335Y-64772390D01*
X100964149Y-64770565D01*
X100967659Y-64770613D01*
X100997625Y-64771874D01*
X101013715Y-64770500D01*
X103012674Y-64770500D01*
X103012675Y-64770499D01*
X103163268Y-64753532D01*
X103296205Y-64738554D01*
X103296208Y-64738553D01*
X103296220Y-64738552D01*
X103574409Y-64675057D01*
X103843739Y-64580814D01*
X103974154Y-64518010D01*
X104100818Y-64457012D01*
X104100818Y-64457011D01*
X104100824Y-64457009D01*
X104342431Y-64305197D01*
X104565521Y-64127289D01*
X104767289Y-63925521D01*
X104945197Y-63702431D01*
X105097009Y-63460824D01*
X105159120Y-63331848D01*
X105220807Y-63203754D01*
X105220808Y-63203750D01*
X105220814Y-63203739D01*
X105315057Y-62934409D01*
X105378552Y-62656220D01*
X105388745Y-62565759D01*
X105410499Y-62372677D01*
X105410500Y-62372673D01*
X105410500Y-62231740D01*
X105410598Y-62228263D01*
X105415104Y-62148011D01*
X105416995Y-62114333D01*
X105427401Y-61942304D01*
X105428160Y-61935706D01*
X105450576Y-61803780D01*
X105451277Y-61799656D01*
X105463432Y-61733324D01*
X105478562Y-61650763D01*
X105479961Y-61644810D01*
X105519387Y-61507956D01*
X105563270Y-61367135D01*
X105565158Y-61361921D01*
X105620397Y-61228565D01*
X105680343Y-61095370D01*
X105682599Y-61090861D01*
X105752958Y-60963557D01*
X105828228Y-60839044D01*
X105830693Y-60835286D01*
X105914461Y-60717226D01*
X105916145Y-60714967D01*
X106004932Y-60601638D01*
X106007472Y-60598605D01*
X106104052Y-60490531D01*
X106106373Y-60488077D01*
X106208077Y-60386373D01*
X106210531Y-60384052D01*
X106318605Y-60287472D01*
X106321638Y-60284932D01*
X106434967Y-60196145D01*
X106437226Y-60194461D01*
X106555286Y-60110693D01*
X106559044Y-60108228D01*
X106683561Y-60032956D01*
X106810861Y-59962599D01*
X106815370Y-59960343D01*
X106948565Y-59900397D01*
X107081921Y-59845158D01*
X107087135Y-59843270D01*
X107227956Y-59799387D01*
X107364810Y-59759961D01*
X107370763Y-59758562D01*
X107453324Y-59743432D01*
X107519656Y-59731277D01*
X107567941Y-59723072D01*
X107655706Y-59708160D01*
X107662304Y-59707401D01*
X107834333Y-59696995D01*
X107920782Y-59692140D01*
X107948263Y-59690598D01*
X107951740Y-59690500D01*
X123188260Y-59690500D01*
X123191737Y-59690598D01*
G37*
%TD.AperFunction*%
%TD*%
M02*
