%TF.GenerationSoftware,KiCad,Pcbnew,7.0.9*%
%TF.CreationDate,2023-11-25T21:26:44-08:00*%
%TF.ProjectId,supermicro-ATX-PCB,73757065-726d-4696-9372-6f2d4154582d,rev?*%
%TF.SameCoordinates,Original*%
%TF.FileFunction,Drillmap*%
%TF.FilePolarity,Positive*%
%FSLAX45Y45*%
G04 Gerber Fmt 4.5, Leading zero omitted, Abs format (unit mm)*
G04 Created by KiCad (PCBNEW 7.0.9) date 2023-11-25 21:26:44*
%MOMM*%
%LPD*%
G01*
G04 APERTURE LIST*
%ADD10C,0.100000*%
%ADD11C,0.200000*%
G04 APERTURE END LIST*
D10*
X10033000Y-8255000D02*
X10287000Y-8255000D01*
X12319000Y-9017000D02*
G75*
G03*
X12573000Y-8763000I0J254000D01*
G01*
X12319000Y-5969000D02*
X10795000Y-5969000D01*
X10033000Y-6477000D02*
X10287000Y-6477000D01*
X10541000Y-8509000D02*
X10541000Y-8763000D01*
X10541000Y-8763000D02*
G75*
G03*
X10795000Y-9017000I254000J0D01*
G01*
X9779000Y-8001000D02*
G75*
G03*
X10033000Y-8255000I254000J0D01*
G01*
X9779000Y-8001000D02*
X9779000Y-6731000D01*
X10795000Y-5969000D02*
G75*
G03*
X10541000Y-6223000I0J-254000D01*
G01*
X12573000Y-6223000D02*
X12573000Y-8763000D01*
X10287000Y-6477000D02*
G75*
G03*
X10541000Y-6223000I0J254000D01*
G01*
X10541000Y-8509000D02*
G75*
G03*
X10287000Y-8255000I-254000J0D01*
G01*
X12319000Y-9017000D02*
X10795000Y-9017000D01*
X12573000Y-6223000D02*
G75*
G03*
X12319000Y-5969000I-254000J0D01*
G01*
X10033000Y-6477000D02*
G75*
G03*
X9779000Y-6731000I0J-254000D01*
G01*
D11*
X10034777Y-9333484D02*
X10034777Y-9133484D01*
X10034777Y-9133484D02*
X10082396Y-9133484D01*
X10082396Y-9133484D02*
X10110967Y-9143008D01*
X10110967Y-9143008D02*
X10130015Y-9162055D01*
X10130015Y-9162055D02*
X10139539Y-9181103D01*
X10139539Y-9181103D02*
X10149063Y-9219198D01*
X10149063Y-9219198D02*
X10149063Y-9247770D01*
X10149063Y-9247770D02*
X10139539Y-9285865D01*
X10139539Y-9285865D02*
X10130015Y-9304912D01*
X10130015Y-9304912D02*
X10110967Y-9323960D01*
X10110967Y-9323960D02*
X10082396Y-9333484D01*
X10082396Y-9333484D02*
X10034777Y-9333484D01*
X10234777Y-9333484D02*
X10234777Y-9200150D01*
X10234777Y-9238246D02*
X10244301Y-9219198D01*
X10244301Y-9219198D02*
X10253824Y-9209674D01*
X10253824Y-9209674D02*
X10272872Y-9200150D01*
X10272872Y-9200150D02*
X10291920Y-9200150D01*
X10358586Y-9333484D02*
X10358586Y-9200150D01*
X10358586Y-9133484D02*
X10349063Y-9143008D01*
X10349063Y-9143008D02*
X10358586Y-9152531D01*
X10358586Y-9152531D02*
X10368110Y-9143008D01*
X10368110Y-9143008D02*
X10358586Y-9133484D01*
X10358586Y-9133484D02*
X10358586Y-9152531D01*
X10482396Y-9333484D02*
X10463348Y-9323960D01*
X10463348Y-9323960D02*
X10453824Y-9304912D01*
X10453824Y-9304912D02*
X10453824Y-9133484D01*
X10587158Y-9333484D02*
X10568110Y-9323960D01*
X10568110Y-9323960D02*
X10558586Y-9304912D01*
X10558586Y-9304912D02*
X10558586Y-9133484D01*
X10815729Y-9333484D02*
X10815729Y-9133484D01*
X10815729Y-9133484D02*
X10882396Y-9276341D01*
X10882396Y-9276341D02*
X10949063Y-9133484D01*
X10949063Y-9133484D02*
X10949063Y-9333484D01*
X11130015Y-9333484D02*
X11130015Y-9228722D01*
X11130015Y-9228722D02*
X11120491Y-9209674D01*
X11120491Y-9209674D02*
X11101444Y-9200150D01*
X11101444Y-9200150D02*
X11063348Y-9200150D01*
X11063348Y-9200150D02*
X11044301Y-9209674D01*
X11130015Y-9323960D02*
X11110967Y-9333484D01*
X11110967Y-9333484D02*
X11063348Y-9333484D01*
X11063348Y-9333484D02*
X11044301Y-9323960D01*
X11044301Y-9323960D02*
X11034777Y-9304912D01*
X11034777Y-9304912D02*
X11034777Y-9285865D01*
X11034777Y-9285865D02*
X11044301Y-9266817D01*
X11044301Y-9266817D02*
X11063348Y-9257293D01*
X11063348Y-9257293D02*
X11110967Y-9257293D01*
X11110967Y-9257293D02*
X11130015Y-9247770D01*
X11225253Y-9200150D02*
X11225253Y-9400150D01*
X11225253Y-9209674D02*
X11244301Y-9200150D01*
X11244301Y-9200150D02*
X11282396Y-9200150D01*
X11282396Y-9200150D02*
X11301443Y-9209674D01*
X11301443Y-9209674D02*
X11310967Y-9219198D01*
X11310967Y-9219198D02*
X11320491Y-9238246D01*
X11320491Y-9238246D02*
X11320491Y-9295389D01*
X11320491Y-9295389D02*
X11310967Y-9314436D01*
X11310967Y-9314436D02*
X11301443Y-9323960D01*
X11301443Y-9323960D02*
X11282396Y-9333484D01*
X11282396Y-9333484D02*
X11244301Y-9333484D01*
X11244301Y-9333484D02*
X11225253Y-9323960D01*
X11406205Y-9314436D02*
X11415729Y-9323960D01*
X11415729Y-9323960D02*
X11406205Y-9333484D01*
X11406205Y-9333484D02*
X11396682Y-9323960D01*
X11396682Y-9323960D02*
X11406205Y-9314436D01*
X11406205Y-9314436D02*
X11406205Y-9333484D01*
X11406205Y-9209674D02*
X11415729Y-9219198D01*
X11415729Y-9219198D02*
X11406205Y-9228722D01*
X11406205Y-9228722D02*
X11396682Y-9219198D01*
X11396682Y-9219198D02*
X11406205Y-9209674D01*
X11406205Y-9209674D02*
X11406205Y-9228722D01*
M02*
